<?xml version="1.0" standalone="no"?>
<!DOCTYPE svg PUBLIC "-//W3C//DTD SVG 1.1//EN" "http://www.w3.org/Graphics/SVG/1.1/DTD/svg11.dtd" >
<svg>
<metadata>
Created by FontForge 20110222 at Thu Aug 28 00:07:10 2014
 By Orthosie Webhosting
Copyright (c) Andrea Wicklund 2007. Created by www.fontifier.com. u98-72k-y2cia
Modified by AdRiAnO66
</metadata>
<defs>
<font id="TF2ProfessorRegular" horiz-adv-x="272" >
  <font-face 
    font-family="TF2ProfessorRegular"
    font-weight="400"
    font-stretch="normal"
    units-per-em="1024"
    panose-1="0 0 4 0 0 0 0 0 0 0"
    ascent="819"
    descent="-205"
    x-height="284"
    cap-height="540"
    bbox="-65 -79 540 707"
    underline-thickness="100"
    underline-position="-50"
    unicode-range="U+0020-2122"
  />
<missing-glyph horiz-adv-x="0" 
 />
    <glyph glyph-name=".notdef" horiz-adv-x="0" 
 />
    <glyph glyph-name=".null" horiz-adv-x="0" 
 />
    <glyph glyph-name="nonmarkingreturn" horiz-adv-x="221" 
 />
    <glyph glyph-name="space" unicode=" " horiz-adv-x="221" 
 />
    <glyph glyph-name="exclam" unicode="!" horiz-adv-x="112" 
d="M64 176l-12 4l-4 12l-2 117l-4 48l-2 25l-2 24l-3 25l-1 21l-2 56l4 12l12 4l12 -4l4 -12l3 -26l2 -22l3 -24l3 -19l5 -225l-4 -12zM64 48l-12 4l-16 16l-4 12l4 12l12 4h16l12 -4l4 -12v-16l-4 -12z" />
    <glyph glyph-name="quotedbl" unicode="&#x22;" horiz-adv-x="192" 
d="M68 524l-8 -8h-8l-16 16l-4 12v112l4 12l12 4l12 -4l4 -12v-16l4 -12l8 -8l4 -12v-64l-4 -12zM144 576v-16l-4 -12l-16 -16h-8l-4 12v96l4 12l12 4l12 -4l4 -12v-16v-48z" />
    <glyph glyph-name="numbersign" unicode="#" horiz-adv-x="464" 
d="M291 346l-23 6l-92 -6l-4 -26v-16l4 -12l12 -4h80l31 4zM412 272h-16l-44 -8l-4 -24l4 -12l8 -8v-8l-12 -4h-16l-12 4l-8 24l-16 16l-12 4h-80l-12 -4l-4 -12l16 -48v-16l-4 -12l-12 -4l-22 1l-6 19l-4 12v32l-4 12l-12 4h-80l-12 4l-4 12l4 12l12 4h32l12 4l8 8l24 8
l4 12v32l-4 12l-12 4l-12 -4l-68 -12l-12 4l-1 27l17 6l24 -1l8 8l12 4h16l12 4l4 60v16l4 12l16 16h8l4 -12v-16l4 -64l4 -12l12 -4h92l12 4l4 12v16l-4 12l-8 8l-4 12v16l4 12l12 4l12 -4l16 -16l4 -12v-32l6 -29l54 -7l4 -12l-4 -12l-15 -11h-25l-4 -25l4 -12l16 -16h8
l48 8l16 -16v-8z" />
    <glyph glyph-name="dollar" unicode="$" horiz-adv-x="320" 
d="M144 432l-10 99l-4 12l-6 13h-8l-48 -48l-4 -12v-16l4 -12l16 -32l32 -16l12 -4l12 4zM240 224l9 31l-4 12l-8 17l-17 16l-26 17l-2 -29v-64l4 -12l12 -4h16l12 4zM276 236l-8 -24l-16 -16l-12 -4h-16l-12 -4l-4 -12v-112l4 -12l8 -8l4 -12v-16l-4 -12l-12 -4h-16l-12 4
l-12 143l-8 13l-2 24l-18 4l-24 8l-48 48l-4 12l4 12l12 4h16l12 -4l8 -24l32 -32h8l4 12v96l-9 44l-43 32l-24 8l-48 48l-4 12v32l4 12l4 14l12 18l32 32l24 8l16 16l4 12v32l4 12l12 4l12 -4l4 -12v-32l4 -12l12 -4h32l12 -4l8 -8l24 -8l16 -16l4 -12l-28 -12l-24 24
l-12 4h-32l-12 -4v-8l-2 -5l4 -12l10 -131l4 -12l72 -72l8 -24l8 -8l8 -24v-24z" />
    <glyph glyph-name="percent" unicode="%" horiz-adv-x="528" 
d="M188 515l-5 25l-27 16l-12 4l-12 -4l-32 -32l-8 -24l-8 -8l-4 -12v-32l4 -12l20 -2l31 8l21 26zM212 524l-8 -24l-8 -8l-8 -24l-32 -32l-24 -24l-24 -8l-12 -4l-12 4l-8 8l-24 8l-4 12v48l4 12l6 13l10 19l24 24l14 18l18 14l8 8l12 4h32l12 -4l32 -32l4 -12l-4 -12z
M404 540l-144 -144l-8 -24l-152 -152l-8 -24l-32 -32l-12 -4l-12 4l-4 12v16l4 12l280 280l72 72l12 4l12 -4v-8zM464 272l9 26l-10 22l-35 12l-12 4l-23 -4l11 -8l8 -8l4 -12l-4 -12l-12 -4l-12 4l-8 8l-12 4h-32l-12 -4l-16 -16l-8 -24l-8 -8l-4 -12v-16l4 -12l16 -16
l12 -4h80l12 4l32 32l16 32zM484 268l-8 -24l-8 -8l-8 -24l-32 -32l-24 -8l-8 -8l-12 -4h-16h-48h-32l-12 4l-16 16l-8 24l-8 8l-4 12l4 12l8 8l8 24l32 48l16 16l32 16l12 4l35 -1l28 11l24 1l12 -4l41 -27l4 -12v-32l-4 -12z" />
    <glyph glyph-name="ampersand" unicode="&#x26;" horiz-adv-x="367" 
d="M144 512v48l-4 12l-12 4h-16l-12 -4l-4 -12v-16l4 -12l8 -8l8 -24l14 -20l10 20zM208 240v16l-4 12l-24 24l-8 24h-8l-16 -16l-4 -12v-48l-4 -12h-8l-16 16l-4 12v32l4 12l8 8l8 24l8 8l4 12v16l-12 20l-8 24h-8l-16 -16l-8 -24l-17 -43l-4 -12l-3 -17l-4 -12v-32l4 -12
l1 -14l11 -22l4 -12l24 -8l8 -8l12 -4h16l12 4l48 48zM240 304v64l-4 12l-12 4l-12 -4l-32 -32v-8l16 -32l16 -16l12 -4l12 4zM260 300l-8 -24l-8 -8l-4 -12l4 -12l8 -8l4 -12l-4 -12h-8l-8 8h-8l-56 -56l-12 -4h-64l-12 4l-32 32l-10 21l-6 11l-4 12l-5 41l4 12l2 28l4 12
l11 35l4 12l16 32l24 24l17 15l-13 29l-4 12l-8 8l-8 24l-8 8l-4 12v16l4 12l32 32l12 4l12 -4l8 -8l24 -8l16 -16l4 -12v-32l-3 -24l-4 -12l-9 -12l-4 -12l-8 -8l-4 -12v-32l4 -12l16 -16h8l35 23l12 4l21 1l12 -4l8 -24l8 -8l4 -12v-48l-4 -12zM260 180l-4 12l4 12h8
l4 -12l-4 -12h-8zM292 132l-16 16l-4 12l4 12h8l16 -16l4 -12l-4 -12h-8zM308 100l-4 12l4 12h8l4 -12l-4 -12h-8zM324 84v8h8v-8h-8z" />
    <glyph glyph-name="quotesingle" unicode="'" horiz-adv-x="160" 
d="M116 604l-4 -12v-16l-4 -12l-32 -64l-16 -16l-12 -4l-12 4l-4 12v16l4 12l8 8l18 23l14 25l8 24l16 16l12 4l12 -4v-8z" />
    <glyph glyph-name="parenleft" unicode="(" horiz-adv-x="256" 
d="M164 28l-8 -8l-12 -4l-12 4l-32 32l-8 24l-8 8l-8 24l-8 8l-4 12v16l-4 12l-8 8l-4 12l-12 68l-4 12l16 80v80l4 12l8 8l4 12v64l4 12l16 32l8 8l8 24l40 40l8 24l12 4l12 -4l4 -12l-4 -12l-8 -8l-8 -24l-40 -40l-4 -12l-12 -36l-4 -12l-7 -95l-4 -12l-1 -25l-4 -12v-96
v-13l2 -11l3 -13l11 -43l4 -12l8 -8l8 -24l24 -24l8 -24l8 -8l8 -24l8 -8v-8zM212 -4l-8 -8l-12 -4l-12 4l-4 12v16l4 12l12 4l12 -4l16 -16v-8z" />
    <glyph glyph-name="parenright" unicode=")" 
d="M228 236l-4 -12v-32l-4 -12l-12 -36l-34 -49l-98 -91l-12 -4h-16l-12 4l-4 12v16l19 14l22 13l53 42l52 85l14 54l4 12l8 8l4 12v112l-4 12l-8 8l-4 12v16l-4 12l-8 8l-8 24l-80 80l-24 8l-32 32l-4 12l4 12l12 4l12 -4l8 -8l24 -8l8 -8l24 -8l32 -32l8 -24l24 -24l8 -24
l8 -8l4 -12l7 -19l4 -12l1 -5l4 -12l16 -48v-112l-4 -12z" />
    <glyph glyph-name="asterisk" unicode="*" horiz-adv-x="256" 
d="M204 576h-32l-12 -4v-8l8 -8l8 -24l8 -8l4 -12l-4 -12h-8l-24 56l-16 16h-8l-16 -16l-8 -24l-32 -48l-12 -4l-12 4v8l8 8l8 24l8 8l8 24l8 8l4 12l-4 12l-12 4h-32l-12 4v8l12 4h48l12 4v8l-24 24l-4 12l4 12h8l24 -24l16 -14l10 11l14 19l8 24h8l4 -12v-16l-4 -12l-8 -8
l-4 -12l4 -12l12 -4h32l12 -4l4 -12l-4 -12z" />
    <glyph glyph-name="plus" unicode="+" horiz-adv-x="448" 
d="M400 348l-8 -8l-12 -4h-112l-12 -4l-4 -12v-80l4 -12l8 -8l4 -12l-4 -12l-16 -16h-8l-4 12v16l-4 12l-8 8l-8 24l-16 80l-12 4h-144l-12 4v8l16 16l24 8l8 8l12 4h80l12 4l4 12v64l4 12l8 8l4 12v16l4 12h8l16 -16l4 -12v-80l4 -12l16 -16l12 -4h16h64h16l12 4l8 8h8
l16 -16l4 -12l-4 -12z" />
    <glyph glyph-name="comma" unicode="," horiz-adv-x="176" 
d="M132 -36l-8 -8l-24 -8l-32 -24h-32l-4 12l4 12l24 8l43 29l4 22l8 8l-3 17l-4 12h-8l-8 -8h-8l-32 32l-4 12l4 12l16 16l12 4h48l12 -4l4 -12v-112l-4 -12z" />
    <glyph glyph-name="hyphen" unicode="-" 
d="M228 284l-8 -8l-12 -4h-48l-12 -4l-8 -8l-12 -4h-32l-12 -4l-8 -8l-12 -4h-16l-12 4l-4 12l4 12l12 4h16l12 4l8 8l12 4h32l12 4l8 8l12 4h64l12 -4v-8z" />
    <glyph glyph-name="period" unicode="." horiz-adv-x="128" 
d="M92 39l-16 -19h-8l-28 15l-8 29l4 12l23 9l9 23l12 4l12 -4l4 -12l9 -28l-5 -21z" />
    <glyph glyph-name="slash" unicode="/" horiz-adv-x="242" 
d="M189 335l-8 -19l-27 -56l-30 -71l-5 -14l-4 -5l-5 -14l-4 -5l-17 -38l-5 -14l-9 -19l-17 -19l-7 -2l-6 2l-2 7v10l2 7l4 5l4 14l5 5l39 99l31 70l35 85l4 14l5 5l4 14l18 19l6 3l7 -3l2 -7v-19l-2 -7z" />
    <glyph glyph-name="zero" unicode="0" horiz-adv-x="400" 
d="M272 352l-4 12l-16 13l-14 7l-12 4h-30l-16 -8l-15 -18l-12 -22l-5 -10l-8 -22l-7 -22l-4 -12l-7 -25l-3 -12l-3 -17l-1 -14l3 -32l12 14l9 11l18 15l111 126zM304 288l-4 12l-7 7l-15 -14l-16 -16l-58 -65l-32 -32l-40 -40v-8l5 -13l11 -19l32 -32l19 -11l13 -5l22 -2
l17 7l17 11l13 18l4 12l7 10l4 12l4 12l6 22l4 51zM356 380l-16 -16l-4 -12l12 -39l3 -19l3 -21l2 -24l-4 -73l-7 -28l-4 -12l-9 -20l-7 -17l-9 -15l-36 -47l-16 -11l-46 -13l-20 2l-12 4l-13 4l-19 12l-44 43l-14 18l-10 -10l-42 -34h-8l-4 12v16l4 12l40 40l-3 13l-3 57
l2 20l1 22l5 29l8 23l15 42l14 27l13 23l20 24l23 8h18l63 -8l26 -12l15 -9l11 -7l12 4l19 21l13 11l8 8h8l4 -12v-16l-4 -12z" />
    <glyph glyph-name="one" unicode="1" horiz-adv-x="304" 
d="M260 28l-8 -8l-12 -4l-128 -16l-12 -4l-52 -12l-12 4l-4 12v16l6 7l77 19l24 8l-4 60l-3 54l-2 33l-2 187l-4 12h-8l-8 -24l-16 -32l-16 -32l-12 -4l-12 4v8l16 32l40 72l8 24l16 16l12 4l12 -4v-8l4 -38l14 -293v-23l2 -18l4 -12l12 -4h16l41 6l10 -3l9 -31z" />
    <glyph glyph-name="two" unicode="2" horiz-adv-x="368" 
d="M314 11l-18 -7l-30 7l-190 -11l-24 3l-12 9l-8 8v8l16 16l24 8l64 64l21 25l27 39l16 32l8 24l6 18l4 12l2 22v96l-4 12l-11 12l-17 8h-32l-19 -11l-13 -18l-12 -28l-8 -24l-4 -12l-25 -1l-4 12l5 34l15 37l16 21l35 26l11 3l36 2l19 -9l32 -29l12 -19l6 -20l-6 -131
l-4 -21l-7 -25l-13 -26l-28 -45l-32 -40l-16 -24l-8 -8v-8l12 -4l144 16l12 -4l16 -16v-8z" />
    <glyph glyph-name="three" unicode="3" horiz-adv-x="256" 
d="M204 100l-15 -30l-13 -22l-36 -45l-28 -15l-64 -4l-12 4l-4 12v16l4 12l12 4h32l12 4l32 16l16 16l32 48l16 32l1 15v22l-4 18l-8 12l-10 9h-103l-12 4l-4 12l4 12l40 27l20 31l8 24l8 35v15l-1 10l-12 4l-12 -4l-11 -6l-32 -16l-12 -4l-12 4l-4 12v16l4 12l12 4l36 12
l12 4h16l12 -4l32 -32l4 -12v-16l-1 -21l-8 -26l-5 -17l-14 -28l24 -8l32 -16l16 -16l16 -32l4 -12v-48l-4 -12z" />
    <glyph glyph-name="four" unicode="4" horiz-adv-x="320" 
d="M169 273l-1 57l-4 10l-8 2l-22 -44l-10 -22l-16 -32l-12 -20l-7 -13l23 -3h16l30 2l13 5zM272 192h-32l-12 -4l-4 -12v-160l-4 -12l-12 -4l-12 4l-16 16l-4 12v128l-4 12l-12 4h-112l-12 4l-4 12l4 12l20 26l12 22l32 48l43 98l8 8l4 12l2 13l-1 13l1 10v8l7 14h8l16 -16
l4 -12l8 -55l8 -57l6 -96l4 -12l12 -4h42l12 -4l4 -12l-4 -12z" />
    <glyph glyph-name="five" unicode="5" horiz-adv-x="336" 
d="M288 444l-8 -8h-8l-20 -4h-16h-48l-42 2h-16l-12 -4l-4 -12l2 -82l3 -30l9 -71h8h11h12h20l24 -6l15 -7l28 -36l14 -23l8 -35v-80l-4 -12l-32 -32l-12 -4h-16l-12 4l-32 32l-4 12v16l4 12h8l24 -24l12 -4h16l12 4l6 23l-4 30l-18 51l-8 11l-22 19l-30 9l-47 -1h-16l-12 4
l-4 12l-13 114l-4 108l-4 12l-24 8v17h35l8 8l24 -4l8 -8l12 -4l165 3l12 -4v-8z" />
    <glyph glyph-name="six" unicode="6" 
d="M196 49l-8 13l-20 14l-18 6l-25 4l-12 -4l-4 -12l3 -17l13 -20l19 -13l18 -3l23 3l13 13zM216 60h-8v-8h8v8zM224 12l-8 -8l-19 -12l-13 -4l-12 -4h-32l-12 4l-21 7l-20 20l-10 24l-8 24l-4 12l-17 9l-16 16v8l26 9l6 37l6 46l6 40l16 48l4 12l16 48l16 32l19 29l45 51
l12 4h16l12 -4v-8l-20 -17l-29 -36l-26 -48l-9 -19l-8 -28l-12 -52l-6 -29l-10 -61l-4 -18v-16l11 -6l34 -6l24 -9l34 -21l21 -26l4 -12v-16l-4 -12z" />
    <glyph glyph-name="seven" unicode="7" horiz-adv-x="352" 
d="M304 336l-64 -224l-4 -12l-12 -52l-4 -12l-8 -8l-4 -12v-16l-4 -12l-15 -4h-8l-17 4l-4 12v32l4 12l12 36l4 12l32 112l28 100l16 48l4 12l8 8l4 12v16l-4 12l-64 -8l-12 -4l-112 -16h-32l-12 4l-4 12l4 12l12 4l84 12l12 4l100 12l12 4l54 7l12 -4l4 -12l-7 -49l-3 -18z
" />
    <glyph glyph-name="eight" unicode="8" 
d="M171 353v48l-8 24l-12 15l-22 6l-19 -7l-14 -20l-8 -32l3 -34l8 -17l12 -11l12 -4h16l12 4l12 10zM206 145v43l-2 32l-4 18l-4 11l-8 14l-16 16l-12 4l-32 -3l-12 -4l-16 -13l-10 -14l-6 -13l-8 -24l-6 -24l-4 -20l-1 -14l2 -21l3 -18l3 -15l6 -17l18 -18l19 -7h30l29 20
l14 20l14 29zM231 91l-10 -24l-16 -27l-18 -19l-16 -9l-16 -7l-16 -3l-41 3l-20 6l-23 16l-12 19l-16 64l2 82l5 23l7 28l6 12l17 26l12 17l10 6l-13 10l-10 19l-4 36l2 33l9 27l12 22l14 17l17 7l15 6h11h16l12 -4l16 -16l11 -18l5 -14l4 -12v-48l-3 -19l-2 -8l-9 -13
l-10 -15l9 2l24 -14l16 -21l12 -25l7 -23l3 -26l-4 -53l-6 -34z" />
    <glyph glyph-name="nine" unicode="9" horiz-adv-x="304" 
d="M194 333l-3 14l-6 12l-16 16l-12 4l-32 -2l-20 -10l-21 -20l-5 -8l-2 -15l7 -24l16 -19l13 -7l18 -2l17 1l13 5l9 6l11 13l7 10l3 9zM269 230l-3 -19l-4 -25l-4 -20l-4 -16l-4 -12l-6 -18l-4 -13l-8 -19l-9 -18l-10 -17l-13 -20l-24 -29l-35 -29l-26 -14l-34 -9h-33
l-10 9v16l6 4l44 11l17 8l35 28l30 40l16 31l9 20l9 29l6 37l5 68l-2 14l-13 -12l-20 -10l-15 -5l-44 -5l-21 2l-15 5l-17 11l-24 34l-7 19v16l6 21l14 21l26 24l4 3l27 14l45 6l10 -1l30 -7l27 -18l23 -29l9 -25l7 -38l3 -18l1 -19v-26z" />
    <glyph glyph-name="colon" unicode=":" horiz-adv-x="144" 
d="M84 305l-8 -8l-12 -4l-12 4l-16 16l-4 12l4 12l8 8l8 24l16 16h8l16 -16l4 -12v-32l-4 -12zM96 85h-32l-12 4l-16 16l-4 12l4 12l12 4h32l12 -4l16 -16l4 -12l-4 -12z" />
    <glyph glyph-name="semicolon" unicode=";" horiz-adv-x="192" 
d="M112 352l-8 -8l-12 -4h-32l-12 4l-4 12v16l4 12l16 16l12 4h16l12 -4l16 -16l4 -12l-4 -12zM147 151l-11 -15l-48 -48l-12 -4h-16l-12 4l-16 16v8l12 4h32l12 4l16 16l10 18l6 14l4 12l-4 12l-24 1l-14 22v16l4 12l12 4l26 1l12 -8l13 -17l7 -16v-11v-16l-4 -12z" />
    <glyph glyph-name="less" unicode="&#x3c;" 
d="M224 224l-12 4l-11 5l-21 11l-68 28l-13 11l-35 21h-16l-12 4l-4 12l4 12l24 8l152 152l12 4l12 -4v-8l-8 -8l-8 -24l-48 -48l-72 -72v-8l16 -16l32 -16l32 -16l12 -4h16l12 -4l16 -16l4 -12l-4 -12z" />
    <glyph glyph-name="equal" unicode="=" horiz-adv-x="336" 
d="M268 368l-62 -1l-12 -4l-26 -7l-16 -2l-76 -2l-12 -4l-8 -8l-12 -4l-12 4v8l16 16l24 8l8 8l12 4h64l96 16h16l12 -4l4 -12l-4 -12zM288 268l-8 -8l-12 -4h-224l-12 4v8l16 16l12 4h128l12 4h24l12 -4h48l12 -4v-8z" />
    <glyph glyph-name="greater" unicode="&#x3e;" horiz-adv-x="304" 
d="M252 336l-12 -4l-104 -104l-32 -32l-16 -16l-12 -4h-16l-12 4l-4 12l4 12l131 120l22 28l-3 14l-14 14l-88 56l-64 64v8l12 4l12 -4l32 -16l66 -55l41 -27l29 -22l24 -8l16 -16l4 -12l-4 -12z" />
    <glyph glyph-name="question" unicode="?" horiz-adv-x="320" 
d="M175 44l4 13l8 10l13 4l18 -1l14 -4l4 -14v-36l-4 -13l-14 -5l-18 1l-13 5l-18 18v9zM37 477l6 9l5 14l6 10l8 12l7 13l9 9l13 10l30 18l13 3h72l14 -5l13 -2l13 -5l14 -7l14 -7l36 -34l4 -14l-5 -13l-4 -12l-5 -11l-9 -12l-35 -32l-16 -9l-40 -12l-14 -5l-13 -4l-5 -14
l5 -83l4 -18l4 -11l4 -14l2 -35l2 -14v-27l-5 -14l-5 -13h-9l-17 18l-5 13l-15 105l-2 21l1 108l6 14l13 4h36l14 5l23 10l13 7l15 19l7 12l5 14l3 12v9l-7 10l-18 9l-31 6h-18h-27l-15 -1l-17 -4l-11 -4l-37 -36l-7 -13l-4 -13l-4 -11l-6 -13l-7 -11l-11 -7l-13 6l-5 13
l1 15z" />
    <glyph glyph-name="at" unicode="@" horiz-adv-x="432" 
d="M216 315l-4 12l-20 3l-55 -47l-2 -26l6 -5l11 -3l57 35zM388 156l-8 -24l-48 -48l-12 -4l-52 -28l-12 -4l-52 -12l-12 -4h-32l-12 4l-32 16l-48 48l-16 32l-4 12l-16 64v112l4 12l2 10l4 12l6 14l4 12l64 64l32 16l44 20h80l12 -4l48 -48l4 -12v-128l-4 -12l-16 -32
l-32 -32l-12 -4l-24 8l-28 36h-8l-8 -8l-20 -18l-8 -8l-23 -9l-13 -2l-12 -4l-16 5l-12 4l-7 30l6 32l5 15l11 17l45 39l24 8l36 3l4 12v16l11 6h8l9 -10l4 -12v-96l4 -12l12 -4l12 4l16 32l4 12v96l-4 12l-32 32l-12 4h-48l-12 -4l-36 -12l-12 -4l-64 -64l-4 -12l-6 -14
l-4 -12l-2 -10l-4 -12v-96l4 -12l5 -13l4 -10l3 -13l4 -12l8 -8l38 -57l19 -10l72 -1l51 17l12 4l28 19l55 71l21 21h8l4 -12v-16l-4 -12z" />
    <glyph glyph-name="A" unicode="A" horiz-adv-x="343" 
d="M241 207l-2 5l-5 25l-30 195l-4 12l-12 4l-12 -4l-4 -12l-34 -132l-13 -66l-3 -24l2 -9l101 -10l12 4zM304 36l-8 -8h-8l-16 7l-4 21v16l-4 12l-16 74l-12 4h-80l-40 3l-24 -109l-4 -12l-16 -16l-15 4l-4 12l18 109l-4 12l-35 7l2 30l12 4h16l12 4l9 11l11 39l14 64l4 12
l44 160l3 13l10 25l4 12l16 16h8l10 -11l6 -21l4 -12l15 -58l4 -12l32 -136l10 -44l13 -69l21 -9l4 -12l-4 -12l-13 -6v-8l12 -85v-16l1 -7z" />
    <glyph glyph-name="B" unicode="B" horiz-adv-x="352" 
d="M192 480v16l-4 12l-8 8l-15 15l-13 4l-12 4h-16l-12 -4l-4 -12l-1 -69l-2 -29l11 -5h8l23 5l20 12l21 31zM276 286l-8 24l-16 16l-12 10l-12 4l-32 12l-12 4l-54 11l-14 -3l-4 -12l7 -99l1 -23l2 -19l3 -21l4 -43l4 -12h8l16 2l24 6l22 13l31 27l34 50l8 29v24zM300 212
l-16 -32l-38 -38l-58 -42l-32 -16l-12 -4h-32l-12 4l-4 12l-16 192l-7 64l-4 12l-21 4l-12 4l-4 12l4 12l12 4h16l6 4l4 12v96l-4 12l-10 16l-24 8l-4 12l4 12l12 4h96l12 -4l32 -16l16 -16l16 -32l4 -12l-5 -40l-15 -20l-13 -14l-27 -18l60 -20l12 -4l32 -16l12 -6l15 -13
l13 -21l9 -15l4 -19l-1 -34l-4 -12z" />
    <glyph glyph-name="C" unicode="C" horiz-adv-x="320" 
d="M276 28l-8 -8l-12 -4l-47 1l-13 3l-20 6l-21 8l-26 9l-46 35l-27 35l-12 34l-6 26l-3 23l-2 15l-7 52l4 58l1 16l9 38l13 36l17 29l45 51l29 23l19 9l25 6l16 1l20 -2l12 -4v-8l-16 -16l-12 -4l-12 -3l-12 -4l-12 -5l-44 -44l-21 -30l-14 -33l-4 -12l-10 -53l2 -20
l13 -127l17 -37l11 -15l24 -16l26 -12l15 -4l28 -6l24 -3l17 -8l12 -4l16 -16v-8z" />
    <glyph glyph-name="D" unicode="D" horiz-adv-x="352" 
d="M280 385l-3 61l-4 12l-16 18l-27 17l-31 8l-25 -1l-35 -2l-13 -1l-31 -6l-6 -4l-5 -5l6 -328l1 -17l1 -25l4 -12l21 -2l36 17l12 9l31 35l25 40l22 47l22 56l8 31zM312 324l-13 -52l-10 -29l-11 -30l-18 -40l-24 -40l-36 -35l-63 -42l-29 -8h-16l-25 2l-10 9l-9 55v192
v48v128v18l-8 24l-8 8v8l8 10h8l16 -2l12 -4l85 6l13 -2l8 -2l19 -2l16 -6l12 -4l19 -7l19 -11l10 -5l22 -18l13 -17l8 -22l2 -49l-5 -39z" />
    <glyph glyph-name="E" unicode="E" horiz-adv-x="337" 
d="M295 67l-27 -17h-24h-24h-24l-37 -3l-15 -1l-32 1l-33 -1l-12 9v8v20l4 12v178l-4 12l-8 14l-12 4h-16l-12 4l-4 12l4 12l12 4l20 -1l12 4l4 12v150l-4 12l-8 8l-4 18l4 12l8 8l53 -4l32 8l12 4h64l12 -4l4 -12l-4 -12l-12 -4h-16l-12 -4l-42 -8l-23 -3l-12 -4l-5 -9
l-4 -12l2 -126l4 -12l16 -16h8h24l50 -2l22 2l32 -8l4 -12l-4 -12l-12 -4l-28 -4h-16l-51 1l-23 -1l-12 -4l-5 -9l2 -67l5 -28v-82l4 -12l13 -12l108 6l19 1l20 13h8l4 -12l-4 -12z" />
    <glyph glyph-name="F" unicode="F" horiz-adv-x="288" 
d="M240 336l-12 4l-9 1l-12 4h-16l-12 -4l-7 -1l-12 -4h-64l-12 -4l-4 -12v-192l4 -12l8 -8l4 -12v-16l-4 -12l-12 -6l-32 11l-4 12l-6 101l1 150l-4 12l-8 8v8l8 8l4 12v80l-4 12l-8 8l-4 12l4 12l12 4h169l12 -4l16 -16v-8l-12 -4h-16l-12 -4l-6 1l-12 -4h-32l-12 4l-22 3
h-16l-12 -4l-4 -12v-80l4 -12l12 -4h144l12 -4l4 -12l-4 -12z" />
    <glyph glyph-name="G" unicode="G" horiz-adv-x="336" 
d="M290 71l2 -43l-3 -11l-10 -12l-45 -2h-14l-12 4l-17 3l-11 3l-22 5l-11 4l-31 16l-45 45l-12 18l-8 11l-9 15l-8 29l-3 29l-5 137l4 25l9 36l5 11l7 17l22 33l15 20l13 18l20 19l38 26l17 11l12 5l12 4l36 9l12 1l28 5l11 -4l11 -23l-7 -9l-12 -3h-15l-22 -3l-12 -4
l-14 -3l-12 -5l-26 -16l-28 -20l-24 -19l-8 -12l-14 -23l-12 -25l-5 -13l-5 -12l-4 -12l-7 -23l-2 -18v-103l2 -22l4 -19l3 -12l10 -20l40 -49l35 -22l10 -4l26 -7l24 -5l11 -3l12 3l3 12l4 26l-1 24l4 49l2 39l-5 12h-8l-69 -2l-10 -4l-12 -4l-10 -3h-47l-10 3l-5 12l5 12
l14 14l12 5h152l12 -5l14 -14l5 -12v-15l-5 -11v-84v-8z" />
    <glyph glyph-name="H" unicode="H" horiz-adv-x="400" 
d="M359 88l-8 -8h-8l-16 16l-4 12l-6 87l-4 12l-12 4l-119 -6l-12 -4l-17 -2l-12 -4h-16l-12 -4l-16 -16l-4 -12l3 -115l-4 -12h-8l-33 12l-4 12l-6 136l-4 38l-2 27l-2 172l-2 28l-4 20l-1 17v32l10 10l12 4l18 -5l4 -12l1 -25l2 -26l6 -33l1 -11l4 -124l2 -26l4 -12l1 -33
l4 -12l12 1l12 4l8 3l12 4l70 2l12 4h64l12 4l4 12l-13 157v80l4 12l12 4l12 -4l4 -12l12 -132l3 -19l3 -68l4 -12l6 -29l4 -12l4 -68l4 -12l7 -40v-8z" />
    <glyph glyph-name="I" unicode="I" horiz-adv-x="144" 
d="M96 80h-16l-12 4l-4 12l-6 50l-6 34l-4 12l-12 145l1 26l-4 19l-1 18v128l4 12h8l16 -16l4 -12l12 -132l6 -127l7 -45l4 -12l3 -46l4 -12l8 -30l4 -12l-4 -12z" />
    <glyph glyph-name="J" unicode="J" horiz-adv-x="304" 
d="M260 140l-4 -26l-4 -12l-5 -7l-7 -14l-8 -15l-12 -14l-16 -16l-12 -4l-22 -6l-12 -4l-18 -2l-23 1l-39 15l-9 5l-17 11l-16 16l-4 12v16l4 12l12 4l12 -4l40 -40l12 -4l48 6l12 4l13 12l8 15l8 24l6 27l-5 228l-2 21l-3 33l-4 81l4 30l15 11h8l12 -7l9 -35l2 -23l6 -66
l1 -21l3 -21l3 -15l3 -120l3 -24l1 -60z" />
    <glyph glyph-name="K" unicode="K" horiz-adv-x="384" 
d="M332 240l-12 4l-32 32l-32 32l-88 88l-12 4l-12 -4l-56 -46v-34l1 -18l15 -110v-8v-24l4 -12l12 -68l4 -12v-16l-4 -12l-16 -16h-8l-28 9l-4 12l-12 84l-3 16l-9 126l-4 12l-2 34l-8 181l-2 12l-2 19l1 13l16 16l17 2l4 -12l4 -13l4 -12l4 -11l3 -29l1 -63l4 -12l12 -4
l12 4l8 8l23 16l73 64l18 11l14 5l64 48l12 4h16l12 -4v-16l-59 -42l-29 -22l-24 -13l-24 -19l-16 -16l-4 -12l4 -12l66 -58l22 -14l64 -64l4 -12l-4 -12z" />
    <glyph glyph-name="L" unicode="L" horiz-adv-x="352" 
d="M304 56l-171 -8h-15l-42 -4h-8l-26 4l-6 12v8l6 13l1 20l-4 150v15l-1 49l-9 100l-1 22v33l-1 16l-2 65l4 12l12 4l29 -3l9 -11v-8l-1 -13l-4 -12l3 -95l4 -12l5 -25l2 -18l2 -26v-48l5 -200l4 -12l12 -4l27 2l26 2l12 4h18h24h22h64l12 -4l4 -12l-4 -12z" />
    <glyph glyph-name="M" unicode="M" horiz-adv-x="464" 
d="M416 124l-8 -8h-8l-16 16l-4 12v256l-4 12h-8l-81 -96l-33 -42l-22 -14h-8l-16 16l-14 22l-34 42l-48 64l-40 56h-8v-8l8 -8l4 -12l12 -244l3 -17l1 -123l-4 -12h-8l-22 4l-6 19l-3 21l-13 115l-1 20l-8 205l-1 35l2 13l-3 21l6 11l17 8h8l15 -2l17 -14l16 -16l32 -48
l48 -64l41 -48h8l45 46l77 90l6 9l4 13l5 15l14 19h8l16 -16l4 -12l3 -259l4 -12l5 -21l4 -12v-32l-4 -12z" />
    <glyph glyph-name="N" unicode="N" horiz-adv-x="385" 
d="M337 96l-15 3l-19 24l-14 21l-14 28l-43 62l-32 48l-48 64l-41 59l-16 16l-12 -6l-4 -12l6 -110l1 -32l6 -25v-8l2 -20l2 -16v-112l-4 -12l-12 -4l-12 4l-4 12l-6 40l-4 12l-2 32l-4 12l-11 188l-2 17l-3 33v18l1 97l8 2h8l12 -6l7 -9l24 -24l48 -64l48 -64l32 -48
l32 -48l12 -20l28 -36h8l-1 12l-4 12l-3 8l-3 15l-1 29l-2 147l-4 12l-6 21l-4 12v16l4 12l12 4l20 -2l15 -13l4 -12l1 -122l2 -27l4 -31l2 -21l12 -144l4 -12v-16l-4 -12z" />
    <glyph glyph-name="O" unicode="O" horiz-adv-x="350" 
d="M268 331l-3 48l-15 50l-14 23l-45 39l-37 5l-38 -12l-19 -7l-26 -25l-6 -20l-12 -79l-5 -21l-3 -33v-39l-4 -29l4 -21l3 -25l6 -20l17 -32l31 -20l21 -5h12l51 25l50 52l7 19l11 66l7 19l1 23zM285 180l-7 -11l-71 -70l-28 -18l-19 -6h-59l-16 6l-32 18l-46 46l-6 18v166
v37l10 72l7 15l48 47l35 35l18 6h47l18 -6l10 -3l17 -6l26 -9l20 -13l37 -42l7 -18l14 -153l-3 -16z" />
    <glyph glyph-name="P" unicode="P" horiz-adv-x="287" 
d="M208 448v32l-4 12l-16 16l-17 7l-12 5l-12 4h-32l-12 -4l-19 -12l-4 -12v-48l5 -22l15 -6l12 -4h64l12 4l16 16zM244 460l-5 -29l-25 -31l-20 -10l-51 -10h-20h-17h-19l5 -80l2 -21l11 -187l-4 -12l-19 -6l-14 10l-4 12l-12 164l-4 12v64l-4 60l-15 11l-4 12l4 12l15 5
l4 12v112l4 12h8l15 -6l5 -22l92 7l18 -4l14 -7l18 -12l14 -20l8 -24v-24z" />
    <glyph glyph-name="Q" unicode="Q" horiz-adv-x="432" 
d="M384 208h-16l-35 19l-18 5l-7 -12l-8 -24l-1 -12l-4 -12l-11 -24l-16 -32l-32 -32h-8l-4 12l4 12l19 62l14 43l2 11l3 14l4 12l-48 23l-43 19l-15 16v8l12 11h18l12 -4l8 -8l12 -4l55 -21l6 18l2 25l2 91l-3 24l-5 32l-19 39l-15 15l-31 16l-24 6l-19 -6l-17 -12l-56 -70
l-10 -16l-12 -36l-4 -12l-15 -68v-12l3 -67l4 -23l20 -74l8 -16l28 -36l24 -24l24 -8h24l12 4l12 -4v-8l-16 -16l-12 -4h-48l-12 4l-48 48l-38 48l-4 12l-13 46l-7 146l1 23l15 54l19 41l27 38l63 68l9 12l-24 8l-4 12l4 12l12 4h32l12 -4l8 -8l12 -4l36 -20l32 -32l24 -32
l12 -21l8 -23l12 -116l1 -20l-2 -32l-3 -27l-2 -16l24 -8l25 -14l21 -27v-8z" />
    <glyph glyph-name="R" unicode="R" horiz-adv-x="406" 
d="M215 534l-7 12l-21 10l-32 4l-30 -6l-12 -4l-10 -6l13 -83l12 -4l18 3l34 10l21 14l15 32zM369 151l-12 4l-45 49l-32 32l-79 100l-19 24l-17 17l-19 23l-15 -6l9 -170l10 -155v-8l-12 -4l-37 10l-4 12l2 44l-2 15l-5 47l-2 145l-4 26l-4 48l-16 6l-10 24l4 10l22 9
l-2 21l-2 19l-5 37l-15 -6l-12 -4l-12 4l-3 24l17 8l20 10l-4 24v14l12 4l12 -4l8 -24l13 1l20 5l12 4l26 -1l13 1l23 -3l13 -8l27 -26l4 -12l5 -24l-3 -24l-4 -14l-7 -16l-40 -35l-20 -9l16 -19l156 -173l27 -34l11 -17l2 -13l-14 -12h-7z" />
    <glyph glyph-name="S" unicode="S" 
d="M231 102l-11 -18l-16 -16l-18 -12l-14 -4h-8h-20l-12 4l-20 8l-12 4l-32 32l-11 19l-5 13l-4 12l4 12l16 16h8l16 -16l4 -12l4 -11l9 -16l27 -28l12 -4h16l12 4l14 19l4 12l2 20v24l-4 28l-4 12l-11 16l-12 18l-33 45l-48 57l-15 17l-9 13l-11 20l-13 30l-4 12v16l2 21
l5 12l11 15l34 28l17 10l15 6l12 4h48l12 -4l16 -16v-8l-15 -13l-12 4l-29 2l-19 -4l-24 -7l-19 -21l-10 -15l-3 -23l4 -12l7 -23l10 -19l30 -37l80 -96l11 -18l10 -15l4 -12l6 -16l4 -12l3 -14l3 -15l-5 -22l-4 -12z" />
    <glyph glyph-name="T" unicode="T" horiz-adv-x="453" 
d="M424 551h-144l-12 -4l-4 -12l-1 -55v-80l8 -226l6 -62l2 -16v-32l-4 -12l-16 -16h-8l-22 17l-5 44v15l-8 189v12v40l-4 22l-4 42l-3 33l-1 78l-4 12l-12 4l-108 -3l-12 -4l-17 -5l-12 -4l-12 4l-16 16l-4 12l4 12l12 4h160l12 4l8 8l12 4h16l12 -4h10h8h6l12 4h144l12 -4
l4 -12l-3 -21z" />
    <glyph glyph-name="U" unicode="U" horiz-adv-x="330" 
d="M296 369l-14 -116l-4 -27l-7 -22l-7 -18l-9 -29l-9 -23l-11 -22l-17 -20l-21 -10l-15 -4l-23 -1l-12 3l-19 6l-20 15l-16 16l-25 49l-4 12l-15 46l-7 23l-8 65l-1 24l-7 205l4 12l19 12l18 -6l4 -12l4 -170v-22l1 -45l6 -50l3 -16l6 -15l4 -12l6 -21l16 -32l34 -38
l28 -10l15 7l15 22l10 27l6 68l8 55l4 12l11 98v80l4 12l21 -1h16l12 -4l4 -12v-20z" />
    <glyph glyph-name="V" unicode="V" horiz-adv-x="352" 
d="M308 460l-1 -16l-3 -28l-9 -33l-12 -57l-2 -24l-5 -34l-5 -29l-3 -75l-12 -100l-4 -12l-33 -18h-8l-22 54l-4 12l-9 28l-12 36l-4 12l-33 79l-4 12l-18 54l-4 12l-18 44l-4 12l-27 79l-4 12l-16 48l4 12l12 4l12 -4l16 -16l16 -32l8 -24l16 -32l7 -14l7 -19l10 -23l4 -12
l15 -39l4 -12l12 -36l4 -12l12 -36l4 -12l18 -60l5 -13l8 65l2 23l12 84l16 96l4 12l12 52l7 65l4 12l2 11l4 12l9 15l17 7h8l7 -12z" />
    <glyph glyph-name="W" unicode="W" horiz-adv-x="512" 
d="M458 497l-4 -21l-2 -35l1 -50l-5 -58l-4 -12l-12 -84l-4 -12l-28 -166l-4 -12l-16 -16l-12 -4l-12 4l-16 32l-32 50l-4 12l-12 36l-4 12l-7 28l-5 24l-4 12l-19 103l-4 12l-13 25h-8l-8 -24l-3 -16l-5 -19l-8 -45l-47 -153l-4 -12l-32 -64l-12 -4l-12 4l-4 12l-2 25
l-4 12l-6 15l-4 12l-13 117l-20 116l-3 19l-9 130l1 14l4 12l12 4l17 -6l4 -12l11 -62l11 -107l4 -26l12 -86l3 -21l1 -23l4 -12h8l20 60l4 12l12 36l4 12l12 52l16 48l4 12l8 8l4 12v48l4 12l16 16h8l16 -16l16 -32l4 -12l16 -80l25 -106l3 -10l4 -12l8 -37l8 -43l4 -12
l16 -16h8l4 12l4 60l11 84l5 28l12 84l10 100l2 29l4 21l9 11l12 4h16l12 -4l4 -12z" />
    <glyph glyph-name="X" unicode="X" horiz-adv-x="352" 
d="M304 46l-17 -4l-16 16l-30 71l-22 49l-8 15l-15 32l-20 70l-12 5l-10 -25l-46 -113l-32 -48l-16 -16l-24 1l-4 11l6 21l18 40l26 48l29 65l13 24l13 20l3 12l-4 18l-13 24l-23 52l-21 47l-5 13l-4 12l12 22h8l18 -17l22 -33l26 -66l8 -24h8l16 16l15 21l28 45l5 14l8 24
l6 11l10 21l12 4h16l12 -4v-8l-2 -10l-4 -12l-6 -14l-4 -12l-64 -119l-9 -17l-6 -11l19 -40l36 -90l24 -62l16 -39l9 -21l4 -12l3 -15z" />
    <glyph glyph-name="Y" unicode="Y" horiz-adv-x="368" 
d="M324 572l-24 -40l-32 -48l-32 -48l-16 -32l-4 -17l-1 -15v-28l1 -16l4 -52v-24l2 -39l2 -149l-4 -12h-8l-28 4l-4 12l-3 34l-4 56l3 33v33l-6 128l-4 12l-17 42l-17 16l-64 78l-32 48l-4 12l4 12l12 4l12 -4l27 -31l21 -33l56 -72l12 -4l12 4l16 16l29 50l40 68l9 19
l16 16l22 3l12 -4l4 -12l-4 -12z" />
    <glyph glyph-name="Z" unicode="Z" horiz-adv-x="416" 
d="M368 48h-96l-52 4l-12 -4h-64h-48h-32l-12 4l-12 7l-8 8l-4 12l5 23l12 4l13 5l12 4l22 42l7 19l18 41l20 41l4 12l16 32l18 36l16 32l26 49l4 12l16 32l19 38l12 20v8l-12 4h-165l-12 4l3 32l12 4l28 4l22 -1l145 -1l12 4l18 10h27l2 -12l-21 -44l-27 -49l-16 -32
l-16 -32l-76 -164l-4 -12l-8 -15l-24 -49l-16 -32l-13 -27v-8l5 -13l12 -4h64h48h96l12 -4l16 -16l4 -12l-4 -12z" />
    <glyph glyph-name="bracketleft" unicode="[" horiz-adv-x="240" 
d="M192 32h-96l-12 4l-16 16l-4 12l-14 141l-2 19l-16 384l4 12l12 4l102 6l6 -10v-8l-9 -10l-8 -8l-27 -2l-38 -7l-12 -4v-8l8 -8l4 -12l6 -133v-20l12 -164l2 -26l2 -114l4 -12l16 -16l12 -4h48l12 -4l16 -16v-8z" />
    <glyph glyph-name="backslash" unicode="\" horiz-adv-x="448" 
d="M401 64l-11 5l-59 66l-62 81l-19 34l-59 90l-8 24l-16 32l-42 64l-32 48l-16 32l-4 12l-37 44l-4 12l4 12l32 8h8l8 -8l40 -64l4 -12l28 -52l32 -48l32 -48l40 -72l8 -8l8 -24l40 -56l32 -48l32 -48l35 -47l8 -8l4 -12l-12 -12z" />
    <glyph glyph-name="bracketright" unicode="]" horiz-adv-x="320" 
d="M272 -4l-4 -15l-16 -13l-100 -12l-12 -4l-12 4l-16 16l-4 12l4 12l32 8h24l52 12l12 4l4 12l-12 52l-4 12l-8 46v19l-4 51v8l-4 36l-3 88l-1 20l-24 216l-4 12v16l-4 12l-12 4l-68 -12h-24l-24 2l-8 14v8l16 16l12 4h96l12 4l24 24l12 4l12 -4l4 -12l19 -299l4 -36l9 -98
l4 -19l8 -48l4 -12l12 -84l4 -60l-4 -12z" />
    <glyph glyph-name="asciicircum" unicode="^" horiz-adv-x="192" 
d="M54 470l-10 -18h-8l-4 12v16l12 20l8 24h8l4 -12v-16l-4 -12zM144 464l-12 4l-8 24l-32 32l-24 8l-4 12v16l4 12l12 4l12 -4l8 -24l56 -56l4 -12l-4 -12z" />
    <glyph glyph-name="underscore" unicode="_" horiz-adv-x="576" 
d="M528 80h-16l-12 -4h-72h-24h-40l-12 4h-16l-12 -4l-31 -1h-32l-12 -4l-13 -3l-12 -4h-176l-12 4l-4 12l4 12l16 16h8l8 -8h24l8 8l12 4h160l68 4h8h72l12 -4h80l12 -4l16 -16v-8z" />
    <glyph glyph-name="grave" unicode="`" horiz-adv-x="176" 
d="M86 569l-4 -5h-4l-9 9l-4 14l-22 32l-2 7v9l-2 7l-5 5l-2 6l2 7l7 3l6 -3l7 -7l11 -20l17 -28l4 -13l2 4l5 -16l-2 -7z" />
    <glyph glyph-name="a" unicode="a" horiz-adv-x="277" 
d="M170 170l-14 23l-16 15h-8l-20 -41l4 -12l12 -3h16l23 2zM244 42l-8 -8h-8l-4 12l-7 28l-4 11l-9 17l-10 16l-41 2l-25 1l-12 -3l-16 -16l-8 -22l-12 -34l-4 -12l-8 -29l-16 -1l-17 8l-3 18l4 12l8 7l4 12l28 94l4 12l32 106v15l-4 11l-8 8l-4 11l4 11l24 8l20 -19l4 -11
l8 -8l4 -11l28 -80l10 -19l25 -48l8 -7l4 -12l18 -53l-1 -20z" />
    <glyph glyph-name="b" unicode="b" horiz-adv-x="251" 
d="M172 290l-4 11l-11 7l-14 1l-50 -12l-14 -5l-16 -15v-18v-15l4 -21h20l42 8l12 3l27 32zM188 153l-4 11l-15 12l-9 4l-19 3h-47l-11 -4l-16 -15l-4 -11l7 -35l4 -17l5 -9h31l40 11l19 16l15 22zM205 110l-37 -29l-31 -16l-27 -3h-36l1 -35l-1 -10l-16 -2l-11 4l-5 40
l-9 126l-1 18v117l4 11h23l8 -7l81 13l24 -2l17 -13l11 -21v-8v-10l-3 -12l-8 -15l-4 -11l-13 -16l-12 -15l23 -7l17 -12l15 -16l4 -11v-30l-4 -12z" />
    <glyph glyph-name="c" unicode="c" horiz-adv-x="208" 
d="M162 19l-25 -3l-18 5l-16 8l-20 11l-27 36l-35 80l-4 14l6 54l5 17l15 33l31 27l29 17l12 5l27 4l12 -4l4 -10l-4 -11l-12 -4l-22 -6l-12 -4l-21 -13l-13 -20l-11 -31l-4 -18l-3 -60l5 -19l22 -43l32 -29l14 -6h29l13 -5l3 -7l-4 -11z" />
    <glyph glyph-name="d" unicode="d" horiz-adv-x="256" 
d="M190 222v29l-4 11l-14 17l-33 12l-12 4h-32l-11 -4l-4 -11l4 -85l11 -105l4 -10l16 -1l40 44l19 26l3 11l14 44zM213 158l-4 -11l-15 -27l-18 -29l-52 -55l-29 -4h-15l-12 4l-4 11l-16 146l-3 73l-3 25l-4 11l4 11l13 14h8l8 -7l24 4h32l12 -3l32 -15l40 -34l11 -21v-44z
" />
    <glyph glyph-name="e" unicode="e" horiz-adv-x="256" 
d="M208 193h-32l-12 -4l-49 -2l-12 -4l-2 -19l-1 -41l12 -63l4 -11l12 -4h64l12 -3v-8l-6 -11h-16l-12 -3l-26 -4l-73 -2l-12 4l-7 16v8l24 7l-1 16l-7 28l-4 71l-2 16l-26 7l-4 21l4 11l20 5v17l-4 22v22l2 32l14 5l12 4h32l12 -4l52 -11l12 -3l4 -12l-4 -11h-8l-40 8
l-12 3h-16l-12 -3l-4 -11v-45l4 -11l12 -3h96l12 -4l4 -11l-4 -11z" />
    <glyph glyph-name="f" unicode="f" horiz-adv-x="224" 
d="M179 211l-8 -7h-8l-36 -4h-16l-3 -6v-8v-5l3 -73l4 -11l8 -46l-4 -25l-11 -6h-8l-16 15v8l-4 34l-4 89l-7 31l-27 -4l-6 11l2 14l14 9l16 6l-4 28v15l-4 12l-24 7l-4 12l4 11l8 8l67 12l12 3l8 8h24l16 -15v-8l-16 -10h-8l-24 -5l-23 -8l-4 -11v-31l4 -11l8 -17l15 1
l48 8l15 -7l1 -16z" />
    <glyph glyph-name="g" unicode="g" horiz-adv-x="262" 
d="M221 125l-4 -10v-43l-3 -10l-16 -28l-15 -14l-12 -4h-46l-12 4l-23 21l-34 23l-20 26l-4 11l-3 98l7 25l7 17l8 11l16 28l31 28l31 14l11 4h47l11 -4l4 -10l-4 -11l-11 -3h-47l-11 -4l-31 -28l-16 -28l-4 -11l-11 -31l-4 -11v-56l4 -11l15 -28l47 -42l11 -4h16l11 4
l16 14l4 10v43l-4 10l-12 4h-62l-11 3l-4 11l4 10l11 4l27 3h54h8l8 7h8l15 -14l4 -10l-4 -11z" />
    <glyph glyph-name="h" unicode="h" horiz-adv-x="295" 
d="M245 23l-5 13l-8 24l-12 36l-4 12l-13 10l-19 -2l-12 -4l-60 -4l-17 -2l-15 -14l-4 -12v-16l4 -12l7 -15v-8l-15 -9h-8l-14 8l-10 64l-8 8v8l8 8l4 12v192l4 12h8l10 -9l6 -23l4 -12v-128l4 -12l12 -4l52 7l44 9l12 4l-8 32l-8 47l-4 12l-8 33l-4 12l-8 8l-4 12l4 12
l12 4l12 -4l16 -16l4 -12l12 -36l4 -12l12 -36l8 -40l8 -40l4 -12l4 -28l8 -17l4 -12l4 -45l-8 -6z" />
    <glyph glyph-name="i" unicode="i" horiz-adv-x="112" 
d="M64 32h-16l-10 11v80l6 57v8l4 36v16v48l-4 12l-8 8v8l16 16h8l16 -16l4 -12v-256l-4 -12z" />
    <glyph glyph-name="j" unicode="j" horiz-adv-x="208" 
d="M174 62l-12 -21l-12 -9h-49l-13 4l-35 17l-10 13l-11 35v17l4 13l13 4l13 -4l8 -14l4 -13v-17l14 -16l13 -5h17l13 5l12 21l-6 109l-1 13l-18 58l-4 13l-9 9l-4 13l4 13l13 4l13 -4l17 -17l4 -13l13 -39l3 -14l5 -64l1 -16l3 -53v-26z" />
    <glyph glyph-name="k" unicode="k" horiz-adv-x="313" 
d="M280 64l-11 1l-39 39l-64 46l-31 15l-12 4l-12 -4l-4 -11v-139l-4 -11l-12 -4l-12 4l-3 11l-2 47l-2 11l-2 70l-29 3l-4 4l-3 13l28 21v14l-2 33l-4 11l-12 50l-4 12l-2 8v7l6 4l17 1l8 -8l16 -36l11 -35l9 -21h14l46 58l14 21l11 16l12 4l12 -4l2 -12l-6 -12l-4 -11
l-16 -26l-31 -46v-8l23 -12l40 -29l24 -16l47 -43l4 -12v-15l-5 -9z" />
    <glyph glyph-name="l" unicode="l" 
d="M220 69h-8v-8h8v8zM226 46l-52 -2l-8 -2h-56h-8h-24l-24 8l-4 12l-5 186l-1 13v40l8 24l12 4l12 -4l4 -12l6 -216l4 -12l12 -4l122 8l12 -4l4 -12l2 -11l-4 -12z" />
    <glyph glyph-name="m" unicode="m" horiz-adv-x="368" 
d="M340 48h-24l-8 9l-4 14v92l-5 34l-5 11l-19 -13l-30 -40l-18 -34l-9 -27l-16 -19h-8l-32 30l-11 16l-62 74h-8l-4 -14l2 -27l2 -23l12 -97l-5 -11l-7 -3l-12 5l-5 32l-4 14l-10 92l-6 74l-4 13l-8 10v9l16 18h8l78 -94l44 -62l7 -4l48 62l34 52l8 28l12 23h17l12 -5
l4 -14v-18l6 -35l10 -131l4 -14l2 -8v-9z" />
    <glyph glyph-name="n" unicode="n" horiz-adv-x="320" 
d="M290 57l-10 -5h-8l-8 24l-31 29l-27 15l-32 20l-86 64h-8l-4 -12l1 -79l3 -13l8 -56l-4 -12l-24 1l-8 15v22l-6 38l-2 20l-4 92v24v8l-8 8v8l16 16h8l32 -32l40 -40l48 -32l32 -16l32 -16h8l4 12l-2 13l-5 30l-4 12l-12 48l-4 12l-5 45l4 12h12l12 -16l8 -24l3 -13l9 -23
l4 -12l12 -52l12 -109v-15z" />
    <glyph glyph-name="o" unicode="o" horiz-adv-x="281" 
d="M208 202l-1 21l-5 16l-10 15l-11 6h-11l-18 -4l-24 -17l-17 -16l-11 -18l-12 -25l-9 -17l-11 -28l-6 -19l-2 -16l6 -18l20 -21l16 -5h42l17 10l13 15l13 20l8 15l10 26l6 41zM238 128l-5 -16l-5 -14l-15 -25l-26 -33l-9 -8l-10 -5l-57 -4l-14 3l-20 5l-32 21l-13 19
l-4 16l-3 33l8 32l8 19l13 23l68 91l15 7l16 3l18 -4l46 -18l12 -11l10 -23l7 -20v-60l-3 -14z" />
    <glyph glyph-name="p" unicode="p" horiz-adv-x="250" 
d="M191 254l-7 14l-12 4h-16l-14 -1l-37 -7l-17 -9l-6 -13l-2 -14l1 -16l7 -21l6 -4l30 3l10 5l23 12l30 35zM224 252l-8 -22l-64 -66l-32 -16l-24 -8l-4 -12v-16l6 -29l1 -13l3 -39l-4 -12l-12 -4l-12 4l-4 12l-1 13l-5 27l-2 16l-3 23l-3 14l-4 24l-12 8l-7 4l-1 12l8 8
l8 4l-4 136l4 12l12 4l12 -4l4 -12v-16l4 -12l12 -1l36 9l12 2l48 2l12 -4l8 -8l15 -27z" />
    <glyph glyph-name="q" unicode="q" horiz-adv-x="283" 
d="M135 157l-19 23l-4 12l6 9l7 1l7 -6l17 -19l-3 75l-4 6l-7 8l-16 5l-8 -1l-7 -2l-15 -10l-16 -26l-3 -8l-1 -8l2 -91l2 -8l6 -9l16 -9h10l16 10l22 36zM260 36l-76 69l-10 6l-16 14l-10 -17l-18 -24l-22 -16l-12 -3l-15 2l-30 20l-7 10l-4 11l-8 100l3 18l7 18l23 36
l21 15l14 4h37l12 -6l17 -24l4 -12l3 -99l7 -10l88 -88l4 -12l-4 -12h-8z" />
    <glyph glyph-name="r" unicode="r" horiz-adv-x="263" 
d="M159 266l-7 9l-12 4h-48l-12 -4l-4 -19v-16l4 -16l8 -4h32l16 8l16 16zM240 36l-11 5l-49 64l-45 51l-19 14l-19 4l-6 -2l1 -12l4 -77l5 -27l4 -12l1 -14l-2 -10l-12 -4l-12 4l-4 12l-4 10l-6 40l-2 18l-2 13l-7 55l-4 12l-3 16l-4 44l2 36l5 22l9 6h96l12 -4l16 -16
l4 -12v-16l-4 -12l-28 -32l-18 -11l-10 -5l87 -89l12 -18l21 -29l4 -12l-4 -12h-8z" />
    <glyph glyph-name="s" unicode="s" horiz-adv-x="192" 
d="M148 32l-7 -7l-9 -3l-24 -1l-16 3l-14 6l-12 5l-30 21l-4 12v16l6 5l5 1l36 -33l28 -6l17 2l5 4l5 20l-4 21l-6 14l-18 32l-76 108l-3 9l1 9l13 25l16 15l10 2h5l9 -2l11 -6l29 -30l-5 -10h-7l-8 8l-13 13l-16 5l-10 -4l-6 -8l-2 -14l2 -8l68 -80l16 -23l4 -9l10 -30
l6 -30v-32l-4 -12z" />
    <glyph glyph-name="t" unicode="t" horiz-adv-x="302" 
d="M267 273l-76 -7l-12 -4l-16 -20l3 -35l1 -8l8 -87l4 -14l6 -13l3 -15v-38l-1 -11l-12 -5l-12 5l-8 10v18l-3 15l-4 15l-5 14l-11 101l-3 24l-3 18l-3 13l-11 2l-95 -4l-12 5v10l10 16l22 3l75 4l17 3l3 12l11 5h16l2 -5l8 -10l16 1l11 3l15 3l59 8l12 -5l4 -15l-7 -7z
" />
    <glyph glyph-name="u" unicode="u" horiz-adv-x="216" 
d="M171 75l-5 -14l-8 -22l-17 -18l-14 -5h-19l-14 5l-39 41l-4 14l-18 107l-1 15v81l5 15l17 2l11 -2l5 -15v-40l1 -15l2 -56l2 -19l14 -73l6 -12l8 -2l28 9l4 16l9 60v14l2 98l5 15l14 5l14 -5l5 -15l-3 -120l-2 -17z" />
    <glyph glyph-name="v" unicode="v" horiz-adv-x="209" 
d="M182 208l-8 -80l-2 -12l-15 -45l-4 -12l-13 -23l-12 -4l-12 4l-20 44l-6 11l-6 9l-8 24l-12 36l-11 30l-4 12l-19 70l5 9l4 3h8l9 -18l11 -39l13 -35l4 -12l16 -32l12 -36l4 -12l8 -9l16 9l4 12l7 70l1 12l8 62l4 12l12 4l9 -6l4 -6z" />
    <glyph glyph-name="w" unicode="w" horiz-adv-x="359" 
d="M341 252l-33 -86l-16 -39l-24 -48l-12 -5l-12 5l-57 81h-8l-15 -33l-17 -43l-1 -9l-7 -20l-4 -15l-11 -19l-12 -5l-12 5l-6 8l-10 50l-16 38l-4 15l-4 18l-24 64l-4 14l-12 44l-4 14v20l5 11l11 3l12 -19l4 -15l20 -72l16 -39l12 -43l4 -9l13 -16l10 13l28 60l1 6l12 38
l12 4l12 -4l8 -29l48 -58h8l12 23l37 83l12 29l8 4h16l7 -6v-9z" />
    <glyph glyph-name="x" unicode="x" horiz-adv-x="283" 
d="M257 34l-14 2l-28 40l-73 83l-7 4l-36 -37l-28 -40l-13 -25l-9 -25l-12 -4h-17l-14 21l7 15l9 8l16 22l18 22l9 14l39 51l6 10l-6 21l-4 12l-17 34l-25 27l-5 10l6 9l12 4h12l12 -16l30 -59l15 -25l4 2l36 62l4 3l14 1l10 -15v-8l-32 -45l-10 -15l-3 -15l11 -14l36 -48
l58 -63l5 -8l-4 -13z" />
    <glyph glyph-name="y" unicode="y" horiz-adv-x="305" 
d="M269 308l-88 -88l-6 -33v-8l4 -33l3 -23l5 -14l3 -12l3 -81l-4 -12h-8l-12 3l-3 15l-1 13l-3 18l-1 11l-7 45l-3 13l-2 10l-4 12l-4 28l-32 32l-44 26l-32 16l-28 30v8l12 4l12 -4l20 -12l15 -7l37 -21l32 -16h8l64 64l32 32l16 27l11 11l5 2l7 -5l9 -19z" />
    <glyph glyph-name="z" unicode="z" horiz-adv-x="254" 
d="M226 44l-7 -3l-12 -2h-16l-12 2l-25 -5l-44 -4l-12 -4l-36 -12l-12 4l-16 16v8l16 16l19 8l4 12l5 32l4 12l16 32l7 9l49 95l4 12l-3 15l-12 4h-32l-12 -4l-12 -5l-20 -3h-24h-8l-11 11v8l6 6l14 5l11 2h9l12 4l82 5l12 4l8 8l12 4l12 -4l4 -12l-4 -12l-8 -8l-4 -12v-16
l-4 -12l-12 -36l-12 -20l-16 -32l-16 -32l-16 -32l-4 -12v-16l4 -12l13 -2l11 2l9 4l12 4l63 4l12 -4l4 -12l-4 -12z" />
    <glyph glyph-name="braceleft" unicode="{" horiz-adv-x="352" 
d="M298 13l-20 -12l-12 -4h-48l-28 4l-16 16l-17 28l-7 14l-8 31l-4 19l2 115l-4 12l-16 16l-12 4h-48l-12 4l-16 16v8l12 4l53 14l21 14l19 14l14 12l5 10v16l-4 12l-9 26l-4 12l-6 25l-2 22l-5 32l-1 61l4 29l6 14l10 18l64 64l12 4l12 -4l4 -12l-4 -12l-26 -13l-10 -11
l-8 -8l-12 -13l-7 -13l-11 -22l-4 -17l2 -19l4 -12l6 -22l4 -12l11 -74l4 -31l2 -24l1 -12v-14l-3 -14l-6 -12l-10 -12l-30 -16l23 -26l5 -10l4 -12l8 -62v-26l5 -61l5 -26l23 -31l21 -5l12 4l32 16l8 8l12 4l12 -4l4 -12v-16l-4 -12z" />
    <glyph glyph-name="bar" unicode="|" horiz-adv-x="144" 
d="M97 60l-7 -7l-12 -3l-11 3l-8 21l-8 6l-4 11l-3 360v16l-8 40l-4 31v27l4 10l15 14l12 3l11 -3l4 -11v-13l4 -10l7 -77l3 -10l5 -17l4 -37v-339z" />
    <glyph glyph-name="braceright" unicode="}" 
d="M30 682l21 10l12 3l48 -5l27 -7l15 -18l14 -29l5 -15l5 -31l2 -20l-13 -114l2 -12l15 -18l11 -5l48 -5l12 -5l14 -17l-1 -8l-12 -3l-54 -9l-23 -12l-20 -12l-15 -10l-6 -10l-2 -16l3 -12l6 -27l3 -12l4 -26l-1 -22l2 -32l-5 -61l-7 -28l-7 -14l-12 -16l-70 -58l-12 -2
l-12 5l-3 12l5 12l28 10l11 10l8 7l14 12l8 12l13 21l6 16v19l-3 13l-4 22l-3 13l-3 74l-1 32v24l1 12l1 14l4 13l8 12l11 11l31 12l-20 29l-4 10l-3 12l-1 63l2 26l1 61l-2 26l-20 33l-20 8l-13 -3l-33 -13l-9 -7l-12 -3l-12 5l-2 13l1 16l5 11z" />
    <glyph glyph-name="asciitilde" unicode="~" horiz-adv-x="288" 
d="M244 284l-24 -24l-12 -4l-12 4l-42 50l-20 28l-33 38l-17 4l-14 -7l-13 -33l-2 -17v-17l-19 2l-4 12v32l4 12l9 18l22 23l17 7l12 2l12 -2l47 -53l17 -27l8 -13l12 -13l16 -2l18 15l4 24l-2 44l-2 16l3 9l9 10h8l4 -12l7 -94l-5 -24z" />
    <glyph glyph-name="exclamdown" unicode="&#xa1;" horiz-adv-x="112" 
d="M76 492l4 -12l-5 -225l-3 -19l-3 -24l-2 -22l-3 -126l-4 -12l-12 -4l-12 4l-4 12l2 156l1 21l3 25l2 24l2 25l4 48l2 117l4 12l12 4zM76 620l4 -12v-16l-4 -12l-12 -4h-16l-12 4l-4 12l4 12l16 16l12 4z" />
    <glyph glyph-name="cent" unicode="&#xa2;" horiz-adv-x="320" 
d="M176 336v64l-3 21l-16 -2l-13 -3l-12 -4l-32 -16l-32 -27l-3 -12l3 -12l15 -18l13 -7l24 -7l14 -3l14 -2l12 1l14 6zM277 313l-9 -5l-12 -4l-17 -5l-12 -4l-15 -11l-4 -12v-32l2 -14l14 -98l-4 -12l-12 -4l-12 4l-7 16l-9 41l-2 19l-4 80l-2 12l-11 1l-45 4l-16 3l-9 4
l-23 12l-29 26l-7 18v16l5 18l19 22l28 20l32 16l12 4l42 14l5 9l1 153l4 12l12 4l12 -4l4 -12v-144l3 -18l14 -4l12 -4l19 -6l12 -4l15 -12v-11l-7 -1l-10 5l-13 5l-29 2l-12 -4l-4 -12v-64l3 -24h11l16 6l14 6l8 8l12 4l12 -4l4 -12l-4 -12z" />
    <glyph glyph-name="sterling" unicode="&#xa3;" horiz-adv-x="416" 
d="M240 592l-10 -8l-30 -31l-12 -21l-12 -36l-4 -12l-12 -52l4 -12l12 -4h48l12 -4l4 -12l-4 -12l-12 -4h-64l-7 -5l-4 -12l2 -27l2 -17v-9l-5 -30l-1 -12l-3 -48l-4 -12h-8l-4 12v144l-5 8l-12 4h-32l-12 -4l-10 -2l-12 -1l-12 4l-1 7l4 12l12 4h64l12 4l4 12l2 44l2 16
l12 36l4 12l16 32l10 20l24 26l30 18l12 4l12 -4l4 -12l-4 -12zM372 124l-14 -18l-22 -10l-78 2l-14 2l-36 12l-12 7l-8 5l-12 4h-16l-12 -4l-24 -24l-23 -11l-9 -5l-12 -4h-16l-12 4l-4 12l4 12l16 16l24 8l48 48l8 24h8l4 -12v-16l4 -12l12 -4h15l13 -4l10 -3l22 -13l8 -5
l12 -5l64 -2l12 4l27 29l6 15l3 16l4 12h8l4 -12v-48l-4 -12z" />
    <glyph glyph-name="dieresis" unicode="&#xa8;" horiz-adv-x="207" 
d="M121 323l-5 6l-3 9l3 10l8 2h23l9 -2l3 -10l-3 -9l-12 -12l-8 -4l-9 4zM41 321l-5 6l-3 9l3 10l9 2l8 4l6 6h5l12 -12l3 -10l-3 -9l-12 -13l-8 -3l-9 3z" />
    <glyph glyph-name="copyright" unicode="&#xa9;" horiz-adv-x="853" 
d="M80 50l-1 9l-4 10l-3 4l-13 8l-11 1l-11 -3l-5 -1l-8 -5l-1 -4l-4 -15l-1 -4v-6v-8l-2 -6l2 -4v-6l2 -3l4 -6l10 -4l5 -1h3l15 5l15 9l1 5l3 13l2 4v3zM77 20l-2 -1l-16 -13l-6 -4l-4 -1h-14l-3 1l-8 4l-10 9l-1 3v30v7l2 14l1 2l11 9l8 6l4 1h11l4 -1h3l3 -2l6 -2l5 -1
l8 -8l1 -4l4 -27l-1 -4zM53 22l-4 -1l-2 1l-3 2l-3 1l-4 5l-5 13l-1 2l1 8l1 2l3 5l4 4l4 2l2 2h4h2l1 -2l-1 -2l-2 -1h-3l-2 -1l-3 -2l-2 -3l-1 -4l-2 -3v-9l1 -3l3 -6l5 -5h2h5l1 -1l1 -2l-1 -1z" />
    <glyph glyph-name="logicalnot" unicode="&#xac;" horiz-adv-x="480" 
d="M425 279l-10 1l-15 12l-4 12l-4 30l-4 12l-4 10l-3 14l-1 46l-4 12l-12 4h-16l-12 -4l-8 -8l-12 -4l-52 -12h-8l-36 -4l-149 -14l-11 -2l-12 4l-16 16v8l16 16l22 11l9 2l41 3l40 2l12 2l116 12l11 1l49 3l30 -4l15 -2l13 -2l5 -3l8 -28l5 -13l2 -15l5 -92l1 -13z" />
    <glyph glyph-name="registered" unicode="&#xae;" horiz-adv-x="853" 
d="M62 56v1l-2 1h-8l-1 -1l-1 -3v-2l1 -3l1 -1h5l2 2l3 2v4zM76 20h-2l-8 11l-7 7l-3 2l-3 1h-1v-2l1 -12l1 -4v-2l1 -2l-1 -1l-2 -1l-1 1l-1 1l-1 2v6l-1 3v2l-2 8v2v3l-1 7v5l1 4h1h15h2l3 -2v-3v-2v-2l-5 -5l-2 -2h-2l14 -14l2 -3l2 -4l1 -2l-1 -2v0zM95 43l-1 11l-5 11
l-4 5l-14 8l-12 1l-12 -3l-6 -1l-8 -5l-2 -5l-4 -17l-1 -5l-1 -6v-9l-1 -6l1 -5l1 -6l2 -4l5 -7l10 -5h6h4l16 5l16 11l2 4l3 15l3 4v4zM92 11l-2 -2l-18 -14l-7 -5l-5 -1h-16l-3 1l-8 5l-12 9l-2 4v34v8l3 15l2 2l11 10l9 7l5 2h12l4 -2h4l4 -2l6 -2l6 -2l9 -9l1 -4l4 -31
v-4z" />
    <glyph glyph-name="degree" unicode="&#xb0;" horiz-adv-x="853" 
 />
    <glyph glyph-name="plusminus" unicode="&#xb1;" horiz-adv-x="368" 
d="M304 384l-28 -4h-11l-28 -4l-12 -4l-1 -20v-80l-4 -12l-12 -4l-12 4l-4 12l-2 46l-2 14l-1 32l-13 8l-12 4l-28 4l-22 4h-64l-12 4l-4 12v16l4 12l12 4h112l12 4l4 12l-3 31l-1 13l-3 9l-2 12v16l4 12l12 4l12 -4l6 -19l3 -14l2 -15l2 -45l4 -12l12 -4h64l12 -4l16 -16
l4 -12l-4 -12zM324 108l-8 -8l-12 -4h-176l-12 4l-10 4l-12 4l-30 4l-12 4l-4 12l4 12l26 6h21l13 -2h208l12 -4l4 -12l-4 -12z" />
    <glyph glyph-name="acute" unicode="&#xb4;" horiz-adv-x="166" 
d="M81 521l-2 -8l-6 -12l-4 -8l-17 -21l-3 -8l-10 -10h-5l-2 8v19l2 8l8 12l4 7l14 24l4 6l10 10h5l9 -10v-5z" />
    <glyph glyph-name="cedilla" unicode="&#xb8;" horiz-adv-x="161" 
d="M82 21l26 -8l-10 -1l-2 -7l8 -4l13 -3l7 -3l7 -14l3 -9l-5 -13l-6 -5l-32 -20l-9 -1l-13 3l-7 4l-9 15v8l6 7h6l4 -7l7 -4l11 1l16 8l1 7l-7 3l-13 3l-8 5l-7 14l-3 8l8 8z" />
    <glyph glyph-name="ordmasculine" unicode="&#xba;" horiz-adv-x="172" 
d="M83.6465 256.703l-0.334961 5.79102l-1.67383 4.41211l-3.34863 4.13574l-3.68359 1.65527h-3.68262l-6.02734 -1.10352l-8.03613 -4.6875l-5.69238 -4.41211l-3.68262 -4.96387l-4.01855 -6.89355l-3.01367 -4.68848l-3.68262 -7.7207l-2.00977 -5.23926
l-0.669922 -4.41211l2.00977 -4.96387l6.69629 -5.79102l5.35742 -1.37891h14.0635l5.69238 2.75781l4.35254 4.13574l4.35352 5.51562l2.67871 4.13672l3.34766 7.16895l2.00977 11.3066zM93.6914 236.297l-1.67383 -4.41211l-1.67383 -3.86035l-5.02344 -6.89453
l-8.70508 -9.09961l-3.01367 -2.20605l-3.34863 -1.37891l-19.0859 -1.10254l-4.6875 0.827148l-6.69727 1.37891l-10.7148 5.79102l-4.35254 5.23926l-1.33984 4.41211l-1.00391 9.09961l2.67871 8.82422l2.67871 5.23926l4.35254 6.34277l22.7695 25.0938l5.02246 1.93066
l5.35742 0.827148l6.02734 -1.10352l15.4023 -4.96387l4.01758 -3.0332l3.34863 -6.3418l2.34375 -5.51562v-16.5449l-1.00391 -3.86133z" />
    <glyph glyph-name="questiondown" unicode="&#xbf;" horiz-adv-x="350" 
d="M165 495l-4 -13l-8 -10l-13 -4h-18l-14 4l-4 14v36l4 13l14 5h18l13 -5l18 -18v-9zM308 64l-6 -10l-5 -14l-5 -10l-8 -12l-7 -13l-9 -9l-13 -10l-30 -18l-13 -4h-72l-14 4l-13 2l-13 5l-14 7l-14 7l-36 33l-4 14l4 13l4 12l5 11l9 13l35 32l15 9l40 13l14 5l13 4l5 14
l-6 83l-4 18l-4 11l-4 14l-3 35l-2 14v27l5 14l4 13h9l18 -18l5 -13l16 -105l2 -21v-108l-5 -14l-13 -4h-36l-14 -5l-23 -11l-13 -7l-15 -19l-7 -12l-5 -14l-2 -12v-9l7 -10l18 -9l31 -5h18h27l15 1l17 4l11 5l36 36l7 13l4 13l4 11l6 13l7 11l11 7l13 -5l5 -13l-1 -15z" />
    <glyph glyph-name="Agrave" unicode="&#xc0;" horiz-adv-x="352" 
d="M241 207l-2 5l-5 25l-30 195l-4 12l-12 4l-12 -4l-4 -12l-34 -132l-13 -66l-3 -24l2 -9l101 -10l12 4zM304 36l-8 -8h-8l-16 7l-4 21v16l-4 12l-16 74l-12 4h-80l-40 3l-24 -109l-4 -12l-16 -16l-15 4l-4 12l18 109l-4 12l-35 7l2 30l12 4h16l12 4l9 11l11 39l14 64l4 12
l44 160l3 13l10 25l4 12l16 16h8l10 -11l6 -21l4 -12l15 -58l4 -12l32 -136l10 -44l13 -69l21 -9l4 -12l-4 -12l-13 -6v-8l12 -85v-16l1 -7zM210 611l-4 -5h-4l-9 9l-4 14l-22 32l-2 7v9l-2 7l-5 5l-2 6l2 7l7 3l6 -3l7 -7l11 -20l17 -28l4 -13l2 4l5 -16l-2 -7z" />
    <glyph glyph-name="Aacute" unicode="&#xc1;" horiz-adv-x="352" 
d="M241 207l-2 5l-5 25l-30 195l-4 12l-12 4l-12 -4l-4 -12l-34 -132l-13 -66l-3 -24l2 -9l101 -10l12 4zM304 36l-8 -8h-8l-16 7l-4 21v16l-4 12l-16 74l-12 4h-80l-40 3l-24 -109l-4 -12l-16 -16l-15 4l-4 12l18 109l-4 12l-35 7l2 30l12 4h16l12 4l9 11l11 39l14 64l4 12
l44 160l3 13l10 25l4 12l16 16h8l10 -11l6 -21l4 -12l15 -58l4 -12l32 -136l10 -44l13 -69l21 -9l4 -12l-4 -12l-13 -6v-8l12 -85v-16l1 -7zM192.767 651.702l-1.47656 -5.70703l-4.42676 -8.56152l-2.95117 -5.70801l-12.5439 -14.9814l-2.21289 -5.70801
l-7.37891 -7.13477h-3.68945l-1.47559 5.70801v13.5557l1.47559 5.70703l5.90332 8.56152l2.95117 4.99414l10.3301 17.1221l2.95117 4.28125l7.37891 7.13379h3.68848l6.6416 -7.13379v-3.56738z" />
    <glyph glyph-name="Acircumflex" unicode="&#xc2;" horiz-adv-x="352" 
d="M241 207l-2 5l-5 25l-30 195l-4 12l-12 4l-12 -4l-4 -12l-34 -132l-13 -66l-3 -24l2 -9l101 -10l12 4zM304 36l-8 -8h-8l-16 7l-4 21v16l-4 12l-16 74l-12 4h-80l-40 3l-24 -109l-4 -12l-16 -16l-15 4l-4 12l18 109l-4 12l-35 7l2 30l12 4h16l12 4l9 11l11 39l14 64l4 12
l44 160l3 13l10 25l4 12l16 16h8l10 -11l6 -21l4 -12l15 -58l4 -12l32 -136l10 -44l13 -69l21 -9l4 -12l-4 -12l-13 -6v-8l12 -85v-16l1 -7zM164 621l-7 -14h-6l-3 9v12l9 15l6 19h6l3 -10v-12l-3 -9zM232 616l-9 3l-6 18l-24 25l-18 6l-3 9v12l3 9l9 3l9 -3l6 -18l42 -43
l3 -9l-3 -9z" />
    <glyph glyph-name="Atilde" unicode="&#xc3;" horiz-adv-x="352" 
d="M241 207l-2 5l-5 25l-30 195l-4 12l-12 4l-12 -4l-4 -12l-34 -132l-13 -66l-3 -24l2 -9l101 -10l12 4zM304 36l-8 -8h-8l-16 7l-4 21v16l-4 12l-16 74l-12 4h-80l-40 3l-24 -109l-4 -12l-16 -16l-15 4l-4 12l18 109l-4 12l-35 7l2 30l12 4h16l12 4l9 11l11 39l14 64l4 12
l44 160l3 13l10 25l4 12l16 16h8l10 -11l6 -21l4 -12l15 -58l4 -12l32 -136l10 -44l13 -69l21 -9l4 -12l-4 -12l-13 -6v-8l12 -85v-16l1 -7zM250.04 605.475l-12.4463 -11.6836l-6.63867 -1.55762l-5.80859 1.55762l-22.4033 24.9238l-9.95703 13.2412l-17.4258 18.6924
l-9.12695 2.33691l-6.63867 -3.89453l-7.46777 -15.5771l-0.830078 -8.56738v-8.56836l-9.95703 1.55762l-1.65918 5.45215v15.5781l1.65918 6.23047l4.97852 8.56738l11.6172 10.9043l8.29785 3.89453l6.6377 0.779297l5.80859 -0.779297l24.8926 -25.7031
l9.12793 -13.2402l4.14941 -7.00977l5.80762 -6.23145l8.29785 -0.77832l9.95703 7.00977l1.66016 12.4619l-0.830078 21.0293l-0.830078 7.78906l0.830078 4.67285l4.97852 4.67285h4.14941l2.48926 -5.45215l3.31836 -45.9531l-2.48926 -12.4619z" />
    <glyph glyph-name="Adieresis" unicode="&#xc4;" horiz-adv-x="352" 
d="M241 207l-2 5l-5 25l-30 195l-4 12l-12 4l-12 -4l-4 -12l-34 -132l-13 -66l-3 -24l2 -9l101 -10l12 4zM304 36l-8 -8h-8l-16 7l-4 21v16l-4 12l-16 74l-12 4h-80l-40 3l-24 -109l-4 -12l-16 -16l-15 4l-4 12l18 109l-4 12l-35 7l2 30l12 4h16l12 4l9 11l11 39l14 64l4 12
l44 160l3 13l10 25l4 12l16 16h8l10 -11l6 -21l4 -12l15 -58l4 -12l32 -136l10 -44l13 -69l21 -9l4 -12l-4 -12l-13 -6v-8l12 -85v-16l1 -7zM216 607l-5 6l-3 9l3 10l8 2h23l9 -2l3 -10l-3 -9l-12 -12l-8 -4l-9 4zM136 605l-5 6l-3 9l3 10l9 2l8 4l6 6h5l12 -12l3 -10l-3 -9
l-12 -13l-8 -3l-9 3z" />
    <glyph glyph-name="Aring" unicode="&#xc5;" horiz-adv-x="352" 
d="M241 207l-2 5l-5 25l-30 195l-4 12l-12 4l-12 -4l-4 -12l-34 -132l-13 -66l-3 -24l2 -9l101 -10l12 4zM304 36l-8 -8h-8l-16 7l-4 21v16l-4 12l-16 74l-12 4h-80l-40 3l-24 -109l-4 -12l-16 -16l-15 4l-4 12l18 109l-4 12l-35 7l2 30l12 4h16l12 4l9 11l11 39l14 64l4 12
l44 160l3 13l10 25l4 12l16 16h8l10 -11l6 -21l4 -12l15 -58l4 -12l32 -136l10 -44l13 -69l21 -9l4 -12l-4 -12l-13 -6v-8l12 -85v-16l1 -7zM221.646 632.703l-0.334961 5.79102l-1.67383 4.41211l-3.34863 4.13574l-3.68359 1.65527h-3.68262l-6.02734 -1.10352
l-8.03613 -4.6875l-5.69238 -4.41211l-3.68262 -4.96387l-4.01855 -6.89355l-3.01367 -4.68848l-3.68262 -7.7207l-2.00977 -5.23926l-0.669922 -4.41211l2.00977 -4.96387l6.69629 -5.79102l5.35742 -1.37891h14.0635l5.69238 2.75781l4.35254 4.13574l4.35352 5.51562
l2.67871 4.13672l3.34766 7.16895l2.00977 11.3066zM231.691 612.297l-1.67383 -4.41211l-1.67383 -3.86035l-5.02344 -6.89453l-8.70508 -9.09961l-3.01367 -2.20605l-3.34863 -1.37891l-19.0859 -1.10254l-4.6875 0.827148l-6.69727 1.37891l-10.7148 5.79102
l-4.35254 5.23926l-1.33984 4.41211l-1.00391 9.09961l2.67871 8.82422l2.67871 5.23926l4.35254 6.34277l22.7695 25.0938l5.02246 1.93066l5.35742 0.827148l6.02734 -1.10352l15.4023 -4.96387l4.01758 -3.0332l3.34863 -6.3418l2.34375 -5.51562v-16.5449
l-1.00391 -3.86133z" />
    <glyph glyph-name="AE" unicode="&#xc6;" horiz-adv-x="561" 
d="M241 207l-2 5l-5 25l-30 195l-4 12l-12 4l-12 -4l-4 -12l-34 -132l-13 -66l-3 -24l2 -9l101 -10l12 4zM304 36l-8 -8h-8l-16 7l-4 21v16l-4 12l-16 74l-12 4h-80l-40 3l-24 -109l-4 -12l-16 -16l-15 4l-4 12l18 109l-4 12l-35 7l2 30l12 4h16l12 4l9 11l11 39l14 64l4 12
l44 160l3 13l10 25l4 12l16 16h8l10 -11l6 -21l4 -12l15 -58l4 -12l32 -136l10 -44l13 -69l21 -9l4 -12l-4 -12l-13 -6v-8l12 -85v-16l1 -7zM503 53l-27 -17h-24h-24h-24l-37 -3l-15 -1l-32 1l-33 -1l-12 9v8v20l4 12v178l-4 12l-8 14l-12 4h-16l-12 4l-4 12l4 12l12 4
l20 -1l12 4l4 12v150l-4 12l-8 8l-4 18l4 12l8 8l53 -4l32 8l12 4h64l12 -4l4 -12l-4 -12l-12 -4h-16l-12 -4l-42 -8l-23 -3l-12 -4l-5 -9l-4 -12l2 -126l4 -12l16 -16h8h24l50 -2l22 2l32 -8l4 -12l-4 -12l-12 -4l-28 -4h-16l-51 1l-23 -1l-12 -4l-5 -9l2 -67l5 -28v-82
l4 -12l13 -12l108 6l19 1l20 13h8l4 -12l-4 -12z" />
    <glyph glyph-name="Ccedilla" unicode="&#xc7;" horiz-adv-x="320" 
d="M154 35l26 -8l-10 -1l-2 -7l8 -4l13 -3l7 -3l7 -14l3 -9l-5 -13l-6 -5l-32 -20l-9 -1l-13 3l-7 4l-9 15v8l6 7h6l4 -7l7 -4l11 1l16 8l1 7l-7 3l-13 3l-8 5l-7 14l-3 8l8 8zM276 28l-8 -8l-12 -4l-47 1l-13 3l-20 6l-21 8l-26 9l-46 35l-27 35l-12 34l-6 26l-3 23l-2 15
l-7 52l4 58l1 16l9 38l13 36l17 29l45 51l29 23l19 9l25 6l16 1l20 -2l12 -4v-8l-16 -16l-12 -4l-12 -3l-12 -4l-12 -5l-44 -44l-21 -30l-14 -33l-4 -12l-10 -53l2 -20l13 -127l17 -37l11 -15l24 -16l26 -12l15 -4l28 -6l24 -3l17 -8l12 -4l16 -16v-8z" />
    <glyph glyph-name="Egrave" unicode="&#xc8;" horiz-adv-x="336" 
d="M136.07 598.031l-2.14258 -2.64551h-2.14258l-4.82129 4.76172l-2.14258 7.40625l-11.7861 16.9297l-1.07129 3.7041v4.76074l-1.07129 3.7041l-2.67871 2.64453l-1.07129 3.1748l1.07129 3.70312l3.75 1.58691l3.21387 -1.58691l3.75 -3.70312l5.89355 -10.5811
l9.10645 -14.8135l2.14258 -6.87793l1.07227 2.11621l2.67773 -8.46484l-1.07129 -3.70312zM295 67l-27 -17h-24h-24h-24l-37 -3l-15 -1l-32 1l-33 -1l-12 9v8v20l4 12v178l-4 12l-8 14l-12 4h-16l-12 4l-4 12l4 12l12 4l20 -1l12 4l4 12v150l-4 12l-8 8l-4 18l4 12l8 8
l53 -4l32 8l12 4h64l12 -4l4 -12l-4 -12l-12 -4h-16l-12 -4l-42 -8l-23 -3l-12 -4l-5 -9l-4 -12l2 -126l4 -12l16 -16h8h24l50 -2l22 2l32 -8l4 -12l-4 -12l-12 -4l-28 -4h-16l-51 1l-23 -1l-12 -4l-5 -9l2 -67l5 -28v-82l4 -12l13 -12l108 6l19 1l20 13h8l4 -12l-4 -12z
" />
    <glyph glyph-name="Eacute" unicode="&#xc9;" horiz-adv-x="336" 
d="M295 67l-27 -17h-24h-24h-24l-37 -3l-15 -1l-32 1l-33 -1l-12 9v8v20l4 12v178l-4 12l-8 14l-12 4h-16l-12 4l-4 12l4 12l12 4l20 -1l12 4l4 12v150l-4 12l-8 8l-4 18l4 12l8 8l53 -4l32 8l12 4h64l12 -4l4 -12l-4 -12l-12 -4h-16l-12 -4l-42 -8l-23 -3l-12 -4l-5 -9
l-4 -12l2 -126l4 -12l16 -16h8h24l50 -2l22 2l32 -8l4 -12l-4 -12l-12 -4l-28 -4h-16l-51 1l-23 -1l-12 -4l-5 -9l2 -67l5 -28v-82l4 -12l13 -12l108 6l19 1l20 13h8l4 -12l-4 -12zM160.691 624.258l-1.30078 -4.25684l-3.90332 -6.38574l-2.60156 -4.25781
l-11.0596 -11.1758l-1.95117 -4.25684l-6.50488 -5.32129h-3.25293l-1.30078 4.25684v10.1113l1.30078 4.25684l5.2041 6.38672l2.60254 3.72461l9.10742 12.7725l2.60156 3.19238l6.50488 5.32227h3.25293l5.85449 -5.32227v-2.66016z" />
    <glyph glyph-name="Ecircumflex" unicode="&#xca;" horiz-adv-x="336" 
d="M295 67l-27 -17h-24h-24h-24l-37 -3l-15 -1l-32 1l-33 -1l-12 9v8v20l4 12v178l-4 12l-8 14l-12 4h-16l-12 4l-4 12l4 12l12 4l20 -1l12 4l4 12v150l-4 12l-8 8l-4 18l4 12l8 8l53 -4l32 8l12 4h64l12 -4l4 -12l-4 -12l-12 -4h-16l-12 -4l-42 -8l-23 -3l-12 -4l-5 -9
l-4 -12l2 -126l4 -12l16 -16h8h24l50 -2l22 2l32 -8l4 -12l-4 -12l-12 -4l-28 -4h-16l-51 1l-23 -1l-12 -4l-5 -9l2 -67l5 -28v-82l4 -12l13 -12l108 6l19 1l20 13h8l4 -12l-4 -12zM116 620l-7 -14h-6l-3 9v12l9 15l6 19h6l3 -10v-12l-3 -9zM184 615l-9 3l-6 18l-24 25
l-18 6l-3 9v12l3 9l9 3l9 -3l6 -18l42 -43l3 -9l-3 -9z" />
    <glyph glyph-name="Edieresis" unicode="&#xcb;" horiz-adv-x="336" 
d="M295 67l-27 -17h-24h-24h-24l-37 -3l-15 -1l-32 1l-33 -1l-12 9v8v20l4 12v178l-4 12l-8 14l-12 4h-16l-12 4l-4 12l4 12l12 4l20 -1l12 4l4 12v150l-4 12l-8 8l-4 18l4 12l8 8l53 -4l32 8l12 4h64l12 -4l4 -12l-4 -12l-12 -4h-16l-12 -4l-42 -8l-23 -3l-12 -4l-5 -9
l-4 -12l2 -126l4 -12l16 -16h8h24l50 -2l22 2l32 -8l4 -12l-4 -12l-12 -4l-28 -4h-16l-51 1l-23 -1l-12 -4l-5 -9l2 -67l5 -28v-82l4 -12l13 -12l108 6l19 1l20 13h8l4 -12l-4 -12zM164 598l-5 6l-3 9l3 10l8 2h23l9 -2l3 -10l-3 -9l-12 -12l-8 -4l-9 4zM84 596l-5 6l-3 9
l3 10l9 2l8 4l6 6h5l12 -12l3 -10l-3 -9l-12 -13l-8 -3l-9 3z" />
    <glyph glyph-name="Igrave" unicode="&#xcc;" horiz-adv-x="144" 
d="M96 80h-16l-12 4l-4 12l-6 50l-6 34l-4 12l-12 145l1 26l-4 19l-1 18v128l4 12h8l16 -16l4 -12l12 -132l6 -127l7 -45l4 -12l3 -46l4 -12l8 -30l4 -12l-4 -12zM78 565l-4 -5h-4l-9 9l-4 14l-22 32l-2 7v9l-2 7l-5 5l-2 6l2 7l7 3l6 -3l7 -7l11 -20l17 -28l4 -13l2 4
l5 -16l-2 -7z" />
    <glyph glyph-name="Iacute" unicode="&#xcd;" horiz-adv-x="144" 
d="M96 80h-16l-12 4l-4 12l-6 50l-6 34l-4 12l-12 145l1 26l-4 19l-1 18v128l4 12h8l16 -16l4 -12l12 -132l6 -127l7 -45l4 -12l3 -46l4 -12l8 -30l4 -12l-4 -12zM44.8262 595.438l-1.10742 -4.44434l-3.32031 -6.66699l-2.21387 -4.44434l-9.40723 -11.666
l-1.66016 -4.44434l-5.53418 -5.55566h-2.76758l-1.10645 4.44434v10.5557l1.10645 4.44434l4.42773 6.66602l2.21387 3.88867l7.74707 13.334l2.21387 3.33301l5.53418 5.55566h2.7666l4.98047 -5.55566v-2.77832z" />
    <glyph glyph-name="Icircumflex" unicode="&#xce;" horiz-adv-x="144" 
d="M96 80h-16l-12 4l-4 12l-6 50l-6 34l-4 12l-12 145l1 26l-4 19l-1 18v128l4 12h8l16 -16l4 -12l12 -132l6 -127l7 -45l4 -12l3 -46l4 -12l8 -30l4 -12l-4 -12zM23 549l-7 -14h-6l-3 9v12l9 15l6 19h6l3 -10v-12l-3 -9zM91 544l-9 3l-6 18l-24 25l-18 6l-3 9v12l3 9l9 3
l9 -3l6 -18l42 -43l3 -9l-3 -9z" />
    <glyph glyph-name="Idieresis" unicode="&#xcf;" horiz-adv-x="144" 
d="M96 80h-16l-12 4l-4 12l-6 50l-6 34l-4 12l-12 145l1 26l-4 19l-1 18v128l4 12h8l16 -16l4 -12l12 -132l6 -127l7 -45l4 -12l3 -46l4 -12l8 -30l4 -12l-4 -12zM66.3027 565.519l-3.69043 5.48926l-2.21387 8.23438l2.21387 9.14844l5.9043 1.83008h16.9746
l6.64258 -1.83008l2.21387 -9.14844l-2.21387 -8.23438l-8.85645 -10.9795l-5.9043 -3.65918l-6.64258 3.65918zM7.25977 563.688l-3.69043 5.48926l-2.21387 8.23438l2.21387 9.14941l6.64258 1.8291l5.9043 3.66016l4.42773 5.48926h3.69043l8.85645 -10.9785
l2.21387 -9.14941l-2.21387 -8.23438l-8.85645 -11.8936l-5.9043 -2.74512l-6.64258 2.74512z" />
    <glyph glyph-name="Eth" unicode="&#xd0;" horiz-adv-x="352" 
d="M280 385l-3 61l-4 12l-16 18l-27 17l-31 8l-25 -1l-35 -2l-13 -1l-31 -6l-6 -4l-5 -5l6 -328l1 -17l1 -25l4 -12l21 -2l36 17l12 9l31 35l25 40l22 47l22 56l8 31zM312 324l-13 -52l-10 -29l-11 -30l-18 -40l-24 -40l-36 -35l-63 -42l-29 -8h-16l-25 2l-10 9l-9 55v192
v48v128v18l-8 24l-8 8v8l8 10h8l16 -2l12 -4l85 6l13 -2l8 -2l19 -2l16 -6l12 -4l19 -7l19 -11l10 -5l22 -18l13 -17l8 -22l2 -49l-5 -39zM194 317l-8 -8l-12 -4h-48l-12 -4l-8 -8l-12 -4h-32l-12 -4l-8 -8l-12 -4h-16l-12 4l-4 12l4 12l12 4h16l12 4l8 8l12 4h32l12 4l8 8
l12 4h64l12 -4v-8z" />
    <glyph glyph-name="Ntilde" unicode="&#xd1;" horiz-adv-x="384" 
d="M240 535l-15 -15l-8 -2l-7 2l-27 32l-12 17l-21 24l-11 3l-8 -5l-9 -20l-1 -11v-11l-12 2l-2 7v20l2 8l6 11l14 14l10 5l8 1l7 -1l30 -33l11 -17l5 -9l7 -8l10 -1l12 9l2 16l-1 27l-1 10l1 6l6 6h5l3 -7l4 -59l-3 -16zM337 96l-15 3l-19 24l-14 21l-14 28l-43 62l-32 48
l-48 64l-41 59l-16 16l-12 -6l-4 -12l6 -110l1 -32l6 -25v-8l2 -20l2 -16v-112l-4 -12l-12 -4l-12 4l-4 12l-6 40l-4 12l-2 32l-4 12l-11 188l-2 17l-3 33v18l1 97l8 2h8l12 -6l7 -9l24 -24l48 -64l48 -64l32 -48l32 -48l12 -20l28 -36h8l-1 12l-4 12l-3 8l-3 15l-1 29
l-2 147l-4 12l-6 21l-4 12v16l4 12l12 4l20 -2l15 -13l4 -12l1 -122l2 -27l4 -31l2 -21l12 -144l4 -12v-16l-4 -12z" />
    <glyph glyph-name="Ograve" unicode="&#xd2;" 
d="M268 331l-3 48l-15 50l-14 23l-45 39l-37 5l-38 -12l-19 -7l-26 -25l-6 -20l-12 -79l-5 -21l-3 -33v-39l-4 -29l4 -21l3 -25l6 -20l17 -32l31 -20l21 -5h12l51 25l50 52l7 19l11 66l7 19l1 23zM285 180l-7 -11l-71 -70l-28 -18l-19 -6h-59l-16 6l-32 18l-46 46l-6 18v166
v37l10 72l7 15l48 47l35 35l18 6h47l18 -6l10 -3l17 -6l26 -9l20 -13l37 -42l7 -18l14 -153l-3 -16zM148 570l-4 -5h-4l-9 9l-4 14l-22 32l-2 7v9l-2 7l-5 5l-2 6l2 7l7 3l6 -3l7 -7l11 -20l17 -28l4 -13l2 4l5 -16l-2 -7z" />
    <glyph glyph-name="Oacute" unicode="&#xd3;" 
d="M268 331l-3 48l-15 50l-14 23l-45 39l-37 5l-38 -12l-19 -7l-26 -25l-6 -20l-12 -79l-5 -21l-3 -33v-39l-4 -29l4 -21l3 -25l6 -20l17 -32l31 -20l21 -5h12l51 25l50 52l7 19l11 66l7 19l1 23zM285 180l-7 -11l-71 -70l-28 -18l-19 -6h-59l-16 6l-32 18l-46 46l-6 18v166
v37l10 72l7 15l48 47l35 35l18 6h47l18 -6l10 -3l17 -6l26 -9l20 -13l37 -42l7 -18l14 -153l-3 -16zM157 645l-2 -8l-6 -12l-4 -8l-17 -21l-3 -8l-10 -10h-5l-2 8v19l2 8l8 12l4 7l14 24l4 6l10 10h5l9 -10v-5z" />
    <glyph glyph-name="Ocircumflex" unicode="&#xd4;" 
d="M268 331l-3 48l-15 50l-14 23l-45 39l-37 5l-38 -12l-19 -7l-26 -25l-6 -20l-12 -79l-5 -21l-3 -33v-39l-4 -29l4 -21l3 -25l6 -20l17 -32l31 -20l21 -5h12l51 25l50 52l7 19l11 66l7 19l1 23zM285 180l-7 -11l-71 -70l-28 -18l-19 -6h-59l-16 6l-32 18l-46 46l-6 18v166
v37l10 72l7 15l48 47l35 35l18 6h47l18 -6l10 -3l17 -6l26 -9l20 -13l37 -42l7 -18l14 -153l-3 -16zM106 571l-7 -14h-6l-3 9v12l9 15l6 19h6l3 -10v-12l-3 -9zM174 566l-9 3l-6 18l-24 25l-18 6l-3 9v12l3 9l9 3l9 -3l6 -18l42 -43l3 -9l-3 -9z" />
    <glyph glyph-name="Otilde" unicode="&#xd5;" 
d="M268 331l-3 48l-15 50l-14 23l-45 39l-37 5l-38 -12l-19 -7l-26 -25l-6 -20l-12 -79l-5 -21l-3 -33v-39l-4 -29l4 -21l3 -25l6 -20l17 -32l31 -20l21 -5h12l51 25l50 52l7 19l11 66l7 19l1 23zM285 180l-7 -11l-71 -70l-28 -18l-19 -6h-59l-16 6l-32 18l-46 46l-6 18v166
v37l10 72l7 15l48 47l35 35l18 6h47l18 -6l10 -3l17 -6l26 -9l20 -13l37 -42l7 -18l14 -153l-3 -16zM194 566l-15 -15l-8 -2l-7 2l-27 32l-12 17l-21 24l-11 3l-8 -5l-9 -20l-1 -11v-11l-12 2l-2 7v20l2 8l6 11l14 14l10 5l8 1l7 -1l30 -33l11 -17l5 -9l7 -8l10 -1l12 9
l2 16l-1 27l-1 10l1 6l6 6h5l3 -7l4 -59l-3 -16z" />
    <glyph glyph-name="Odieresis" unicode="&#xd6;" 
d="M268 331l-3 48l-15 50l-14 23l-45 39l-37 5l-38 -12l-19 -7l-26 -25l-6 -20l-12 -79l-5 -21l-3 -33v-39l-4 -29l4 -21l3 -25l6 -20l17 -32l31 -20l21 -5h12l51 25l50 52l7 19l11 66l7 19l1 23zM285 180l-7 -11l-71 -70l-28 -18l-19 -6h-59l-16 6l-32 18l-46 46l-6 18v166
v37l10 72l7 15l48 47l35 35l18 6h47l18 -6l10 -3l17 -6l26 -9l20 -13l37 -42l7 -18l14 -153l-3 -16zM161 572l-5 6l-3 9l3 10l8 2h23l9 -2l3 -10l-3 -9l-12 -12l-8 -4l-9 4zM81 570l-5 6l-3 9l3 10l9 2l8 4l6 6h5l12 -12l3 -10l-3 -9l-12 -13l-8 -3l-9 3z" />
    <glyph glyph-name="multiply" unicode="&#xd7;" horiz-adv-x="231" 
d="M194 80l-12 1l-22 29l-54 56l-5 4l-28 -27l-19 -26l-11 -18l-7 -18l-9 -1h-13l-11 13l6 12l7 5l12 14l14 15l6 9l29 36l6 7l-6 14l-2 9l-14 23l-18 18l-3 7l3 7l11 1h7l10 -10l23 -41l10 -15h3l29 41l1 5h12l8 -12v-5l-26 -29l-8 -12l-1 -10l9 -10l27 -33l44 -44l3 -5
l-3 -9z" />
    <glyph glyph-name="Oslash" unicode="&#xd8;" 
d="M268 331l-3 48l-15 50l-14 23l-45 39l-37 5l-38 -12l-19 -7l-26 -25l-6 -20l-12 -79l-5 -21l-3 -33v-39l-4 -29l4 -21l3 -25l6 -20l17 -32l31 -20l21 -5h12l51 25l50 52l7 19l11 66l7 19l1 23zM285 180l-7 -11l-71 -70l-28 -18l-19 -6h-59l-16 6l-32 18l-46 46l-6 18v166
v37l10 72l7 15l48 47l35 35l18 6h47l18 -6l10 -3l17 -6l26 -9l20 -13l37 -42l7 -18l14 -153l-3 -16zM199 480l-8 -19l-27 -56l-30 -71l-5 -14l-4 -5l-5 -14l-4 -5l-17 -38l-5 -14l-9 -19l-17 -19l-7 -2l-6 2l-2 7v10l2 7l4 5l4 14l5 5l39 99l31 70l35 85l4 14l5 5l4 14
l18 19l6 3l7 -3l2 -7v-19l-2 -7z" />
    <glyph glyph-name="Ugrave" unicode="&#xd9;" horiz-adv-x="330" 
d="M296 369l-14 -116l-4 -27l-7 -22l-7 -18l-9 -29l-9 -23l-11 -22l-17 -20l-21 -10l-15 -4l-23 -1l-12 3l-19 6l-20 15l-16 16l-25 49l-4 12l-15 46l-7 23l-8 65l-1 24l-7 205l4 12l19 12l18 -6l4 -12l4 -170v-22l1 -45l6 -50l3 -16l6 -15l4 -12l6 -21l16 -32l34 -38
l28 -10l15 7l15 22l10 27l6 68l8 55l4 12l11 98v80l4 12l21 -1h16l12 -4l4 -12v-20zM146 573l-4 -5h-4l-9 9l-4 14l-22 32l-2 7v9l-2 7l-5 5l-2 6l2 7l7 3l6 -3l7 -7l11 -20l17 -28l4 -13l2 4l5 -16l-2 -7z" />
    <glyph glyph-name="Uacute" unicode="&#xda;" horiz-adv-x="330" 
d="M296 369l-14 -116l-4 -27l-7 -22l-7 -18l-9 -29l-9 -23l-11 -22l-17 -20l-21 -10l-15 -4l-23 -1l-12 3l-19 6l-20 15l-16 16l-25 49l-4 12l-15 46l-7 23l-8 65l-1 24l-7 205l4 12l19 12l18 -6l4 -12l4 -170v-22l1 -45l6 -50l3 -16l6 -15l4 -12l6 -21l16 -32l34 -38
l28 -10l15 7l15 22l10 27l6 68l8 55l4 12l11 98v80l4 12l21 -1h16l12 -4l4 -12v-20zM245.927 652.688l-2.71484 -9.3623l-8.14258 -14.042l-5.42871 -9.3623l-23.0703 -24.5742l-4.07129 -9.3623l-13.5713 -11.7021h-6.78613l-2.71387 9.36133v22.2344l2.71387 9.3623
l10.8574 14.043l5.42871 8.19141l18.999 28.085l5.42871 7.02148l13.5713 11.7021h6.78516l12.2139 -11.7021v-5.85059z" />
    <glyph glyph-name="Ucircumflex" unicode="&#xdb;" horiz-adv-x="330" 
d="M296 369l-14 -116l-4 -27l-7 -22l-7 -18l-9 -29l-9 -23l-11 -22l-17 -20l-21 -10l-15 -4l-23 -1l-12 3l-19 6l-20 15l-16 16l-25 49l-4 12l-15 46l-7 23l-8 65l-1 24l-7 205l4 12l19 12l18 -6l4 -12l4 -170v-22l1 -45l6 -50l3 -16l6 -15l4 -12l6 -21l16 -32l34 -38
l28 -10l15 7l15 22l10 27l6 68l8 55l4 12l11 98v80l4 12l21 -1h16l12 -4l4 -12v-20zM140 591l-7 -14h-6l-3 9v12l9 15l6 19h6l3 -10v-12l-3 -9zM208 586l-9 3l-6 18l-24 25l-18 6l-3 9v12l3 9l9 3l9 -3l6 -18l42 -43l3 -9l-3 -9z" />
    <glyph glyph-name="Udieresis" unicode="&#xdc;" horiz-adv-x="330" 
d="M296 369l-14 -116l-4 -27l-7 -22l-7 -18l-9 -29l-9 -23l-11 -22l-17 -20l-21 -10l-15 -4l-23 -1l-12 3l-19 6l-20 15l-16 16l-25 49l-4 12l-15 46l-7 23l-8 65l-1 24l-7 205l4 12l19 12l18 -6l4 -12l4 -170v-22l1 -45l6 -50l3 -16l6 -15l4 -12l6 -21l16 -32l34 -38
l28 -10l15 7l15 22l10 27l6 68l8 55l4 12l11 98v80l4 12l21 -1h16l12 -4l4 -12v-20zM190 578l-5 6l-3 9l3 10l8 2h23l9 -2l3 -10l-3 -9l-12 -12l-8 -4l-9 4zM110 576l-5 6l-3 9l3 10l9 2l8 4l6 6h5l12 -12l3 -10l-3 -9l-12 -13l-8 -3l-9 3z" />
    <glyph glyph-name="Yacute" unicode="&#xdd;" horiz-adv-x="368" 
d="M324 572l-24 -40l-32 -48l-32 -48l-16 -32l-4 -17l-1 -15v-28l1 -16l4 -52v-24l2 -39l2 -149l-4 -12h-8l-28 4l-4 12l-3 34l-4 56l3 33v33l-6 128l-4 12l-17 42l-17 16l-64 78l-32 48l-4 12l4 12l12 4l12 -4l27 -31l21 -33l56 -72l12 -4l12 4l16 16l29 50l40 68l9 19
l16 16l22 3l12 -4l4 -12l-4 -12zM242 674l-2 -8l-6 -12l-4 -8l-17 -21l-3 -8l-10 -10h-5l-2 8v19l2 8l8 12l4 7l14 24l4 6l10 10h5l9 -10v-5z" />
    <glyph glyph-name="Thorn" unicode="&#xde;" horiz-adv-x="853" 
 />
    <glyph glyph-name="germandbls" unicode="&#xdf;" horiz-adv-x="347" 
d="M302 150l-4 -12l-6 -8l-5 -12l-5 -11l-6 -11l-6 -7l-35 -29l-13 -4l-14 -3h-17h-27l-13 3l-13 4l-18 14l-4 11v45l4 10h9l18 -15l4 -10v-15l6 -8l12 -7h35l13 4l27 25l5 11l8 19l4 11l3 13l1 19l-4 20l-4 10l-5 11l-51 37l-12 3h-36l-13 2l-20 24l-4 11l4 11l39 27l10 21
l5 19l4 10l4 18l3 14l-5 24l-5 11l-19 20l-13 4h-14l-13 -2l-13 -4l-14 -11l-8 -15v-15v-58v-367l-5 -12l-17 -14l-18 2l-4 11v455l9 26l12 20l11 9l34 12l16 2l10 -2l11 -3l13 -5l11 -5l35 -30l5 -11l15 -31l3 -13v-15v-18l-4 -18l-7 -14l-12 -15l-6 -9l-11 -11l-9 -7v-7
l21 -9l14 -6l14 -3l22 -11l38 -29l16 -23l9 -23l3 -18v-13l-3 -13z" />
    <glyph glyph-name="agrave" unicode="&#xe0;" horiz-adv-x="288" 
d="M170 170l-14 23l-16 15h-8l-20 -41l4 -12l12 -3h16l23 2zM244 42l-8 -8h-8l-4 12l-7 28l-4 11l-9 17l-10 16l-41 2l-25 1l-12 -3l-16 -16l-8 -22l-12 -34l-4 -12l-8 -29l-16 -1l-17 8l-3 18l4 12l8 7l4 12l28 94l4 12l32 106v15l-4 11l-8 8l-4 11l4 11l24 8l20 -19l4 -11
l8 -8l4 -11l28 -80l10 -19l25 -48l8 -7l4 -12l18 -53l-1 -20zM114 363l-4 -5h-4l-9 9l-4 14l-22 32l-2 7v9l-2 7l-5 5l-2 6l2 7l7 3l6 -3l7 -7l11 -20l17 -28l4 -13l2 4l5 -16l-2 -7z" />
    <glyph glyph-name="aacute" unicode="&#xe1;" horiz-adv-x="288" 
d="M170 170l-14 23l-16 15h-8l-20 -41l4 -12l12 -3h16l23 2zM244 42l-8 -8h-8l-4 12l-7 28l-4 11l-9 17l-10 16l-41 2l-25 1l-12 -3l-16 -16l-8 -22l-12 -34l-4 -12l-8 -29l-16 -1l-17 8l-3 18l4 12l8 7l4 12l28 94l4 12l32 106v15l-4 11l-8 8l-4 11l4 11l24 8l20 -19l4 -11
l8 -8l4 -11l28 -80l10 -19l25 -48l8 -7l4 -12l18 -53l-1 -20zM116.896 380.438l-1.00977 -4.44434l-3.0293 -6.66699l-2.01953 -4.44434l-8.58301 -11.666l-1.51465 -4.44434l-5.04883 -5.55566h-2.52441l-1.00977 4.44434v10.5557l1.00977 4.44434l4.03906 6.66602
l2.01953 3.88867l7.06836 13.334l2.01953 3.33301l5.04883 5.55566h2.52441l4.54395 -5.55566v-2.77832z" />
    <glyph glyph-name="acircumflex" unicode="&#xe2;" horiz-adv-x="288" 
d="M170 170l-14 23l-16 15h-8l-20 -41l4 -12l12 -3h16l23 2zM244 42l-8 -8h-8l-4 12l-7 28l-4 11l-9 17l-10 16l-41 2l-25 1l-12 -3l-16 -16l-8 -22l-12 -34l-4 -12l-8 -29l-16 -1l-17 8l-3 18l4 12l8 7l4 12l28 94l4 12l32 106v15l-4 11l-8 8l-4 11l4 11l24 8l20 -19l4 -11
l8 -8l4 -11l28 -80l10 -19l25 -48l8 -7l4 -12l18 -53l-1 -20zM90 361l-7 -14h-6l-3 9v12l9 15l6 19h6l3 -10v-12l-3 -9zM158 356l-9 3l-6 18l-24 25l-18 6l-3 9v12l3 9l9 3l9 -3l6 -18l42 -43l3 -9l-3 -9z" />
    <glyph glyph-name="atilde" unicode="&#xe3;" horiz-adv-x="288" 
d="M170 170l-14 23l-16 15h-8l-20 -41l4 -12l12 -3h16l23 2zM244 42l-8 -8h-8l-4 12l-7 28l-4 11l-9 17l-10 16l-41 2l-25 1l-12 -3l-16 -16l-8 -22l-12 -34l-4 -12l-8 -29l-16 -1l-17 8l-3 18l4 12l8 7l4 12l28 94l4 12l32 106v15l-4 11l-8 8l-4 11l4 11l24 8l20 -19l4 -11
l8 -8l4 -11l28 -80l10 -19l25 -48l8 -7l4 -12l18 -53l-1 -20zM163.824 355.169l-10.6387 -11.3945l-5.67383 -1.51953l-4.96484 1.51953l-19.1484 24.3086l-8.51074 12.9141l-14.8936 18.2314l-7.80176 2.27832l-5.67383 -3.79785l-6.38379 -15.1934l-0.708984 -8.35547
v-8.35645l-8.51074 1.51953l-1.41797 5.31738v15.1934l1.41797 6.07715l4.25586 8.35547l9.92871 10.6357l7.09277 3.79785l5.67383 0.759766l4.96387 -0.759766l21.2773 -25.0684l7.80176 -12.9141l3.5459 -6.83691l4.96484 -6.07715l7.0918 -0.759766l8.51074 6.83691
l1.41895 12.1543l-0.708984 20.5107l-0.709961 7.59668l0.709961 4.55762l4.25488 4.55762h3.5459l2.12793 -5.31738l2.83691 -44.8193l-2.12793 -12.1543z" />
    <glyph glyph-name="adieresis" unicode="&#xe4;" horiz-adv-x="288" 
d="M170 170l-14 23l-16 15h-8l-20 -41l4 -12l12 -3h16l23 2zM244 42l-8 -8h-8l-4 12l-7 28l-4 11l-9 17l-10 16l-41 2l-25 1l-12 -3l-16 -16l-8 -22l-12 -34l-4 -12l-8 -29l-16 -1l-17 8l-3 18l4 12l8 7l4 12l28 94l4 12l32 106v15l-4 11l-8 8l-4 11l4 11l24 8l20 -19l4 -11
l8 -8l4 -11l28 -80l10 -19l25 -48l8 -7l4 -12l18 -53l-1 -20zM158 358l-5 6l-3 9l3 10l8 2h23l9 -2l3 -10l-3 -9l-12 -12l-8 -4l-9 4zM78 356l-5 6l-3 9l3 10l9 2l8 4l6 6h5l12 -12l3 -10l-3 -9l-12 -13l-8 -3l-9 3z" />
    <glyph glyph-name="aring" unicode="&#xe5;" horiz-adv-x="288" 
d="M170 170l-14 23l-16 15h-8l-20 -41l4 -12l12 -3h16l23 2zM244 42l-8 -8h-8l-4 12l-7 28l-4 11l-9 17l-10 16l-41 2l-25 1l-12 -3l-16 -16l-8 -22l-12 -34l-4 -12l-8 -29l-16 -1l-17 8l-3 18l4 12l8 7l4 12l28 94l4 12l32 106v15l-4 11l-8 8l-4 11l4 11l24 8l20 -19l4 -11
l8 -8l4 -11l28 -80l10 -19l25 -48l8 -7l4 -12l18 -53l-1 -20z" />
    <glyph glyph-name="ae" unicode="&#xe6;" horiz-adv-x="423" 
d="M170 170l-14 23l-16 15h-8l-20 -41l4 -12l12 -3h16l23 2zM244 42l-8 -8h-8l-4 12l-7 28l-4 11l-9 17l-10 16l-41 2l-25 1l-12 -3l-16 -16l-8 -22l-12 -34l-4 -12l-8 -29l-16 -1l-17 8l-3 18l4 12l8 7l4 12l28 94l4 12l32 106v15l-4 11l-8 8l-4 11l4 11l24 8l20 -19l4 -11
l8 -8l4 -11l28 -80l10 -19l25 -48l8 -7l4 -12l18 -53l-1 -20zM352 193h-32l-12 -4l-49 -2l-12 -4l-2 -19l-1 -41l12 -63l4 -11l12 -4h64l12 -3v-8l-6 -11h-16l-12 -3l-26 -4l-73 -2l-12 4l-7 16v8l24 7l-1 16l-7 28l-4 71l-2 16l-26 7l-4 21l4 11l20 5v17l-4 22v22l2 32
l14 5l12 4h32l12 -4l52 -11l12 -3l4 -12l-4 -11h-8l-40 8l-12 3h-16l-12 -3l-4 -11v-45l4 -11l12 -3h96l12 -4l4 -11l-4 -11z" />
    <glyph glyph-name="ccedilla" unicode="&#xe7;" horiz-adv-x="208" 
d="M91 36l14 -6l-5 -1l-1 -5l4 -3l7 -3l4 -2l3 -11l2 -7l-3 -10l-3 -4l-17 -15l-5 -1l-7 2l-3 3l-5 12v6l3 6h3l2 -6l4 -3l6 1l9 6v5l-4 3l-7 2l-4 4l-4 11l-1 6l4 6zM162 19l-25 -3l-18 5l-16 8l-20 11l-27 36l-35 80l-4 14l6 54l5 17l15 33l31 27l29 17l12 5l27 4l12 -4
l4 -10l-4 -11l-12 -4l-22 -6l-12 -4l-21 -13l-13 -20l-11 -31l-4 -18l-3 -60l5 -19l22 -43l32 -29l14 -6h29l13 -5l3 -7l-4 -11z" />
    <glyph glyph-name="egrave" unicode="&#xe8;" horiz-adv-x="256" 
d="M208 193h-32l-12 -4l-49 -2l-12 -4l-2 -19l-1 -41l12 -63l4 -11l12 -4h64l12 -3v-8l-6 -11h-16l-12 -3l-26 -4l-73 -2l-12 4l-7 16v8l24 7l-1 16l-7 28l-4 71l-2 16l-26 7l-4 21l4 11l20 5v17l-4 22v22l2 32l14 5l12 4h32l12 -4l52 -11l12 -3l4 -12l-4 -11h-8l-40 8
l-12 3h-16l-12 -3l-4 -11v-45l4 -11l12 -3h96l12 -4l4 -11l-4 -11zM107.136 336.16l-2.28516 -2.84766h-2.28516l-5.14258 5.12695l-2.28516 7.97559l-12.5693 18.2305l-1.14258 3.98828v5.12695l-1.14355 3.98828l-2.85645 2.84863l-1.14258 3.41797l1.14258 3.98828
l4 1.70898l3.42773 -1.70898l3.99902 -3.98828l6.28516 -11.3945l9.71289 -15.9512l2.28516 -7.40625l1.14355 2.2793l2.85645 -9.11523l-1.14258 -3.98828z" />
    <glyph glyph-name="eacute" unicode="&#xe9;" horiz-adv-x="256" 
d="M177 522l-4 -13l-5 -14l-36 -36l-13 -4l-14 4v9l9 9l5 14l4 13l36 36l14 5l13 -5v-9zM230 270l-35 -5h-15l-71 -4v-28l4 -32l2 -9v-12v-72l4 -14l21 -4h36l13 4l15 2h9l12 -11v-9l-9 -11l-14 -5l-13 -2l-13 -4h-90l-14 4l-18 18v9l14 77v72l-5 13l-27 27v27l9 9l5 14v72
l4 13l18 18h63l12 -2l33 2h9l18 -18l5 -13l-5 -14l-13 -4h-18l-14 4l-9 9h-27l-18 -18l-4 -13v-36l4 -14l14 -4h108l13 -5l5 -13l-5 -14z" />
    <glyph glyph-name="ecircumflex" unicode="&#xea;" horiz-adv-x="256" 
d="M208 193h-32l-12 -4l-49 -2l-12 -4l-2 -19l-1 -41l12 -63l4 -11l12 -4h64l12 -3v-8l-6 -11h-16l-12 -3l-26 -4l-73 -2l-12 4l-7 16v8l24 7l-1 16l-7 28l-4 71l-2 16l-26 7l-4 21l4 11l20 5v17l-4 22v22l2 32l14 5l12 4h32l12 -4l52 -11l12 -3l4 -12l-4 -11h-8l-40 8
l-12 3h-16l-12 -3l-4 -11v-45l4 -11l12 -3h96l12 -4l4 -11l-4 -11zM78 352l-7 -14h-6l-3 9v12l9 15l6 19h6l3 -10v-12l-3 -9zM146 347l-9 3l-6 18l-24 25l-18 6l-3 9v12l3 9l9 3l9 -3l6 -18l42 -43l3 -9l-3 -9z" />
    <glyph glyph-name="edieresis" unicode="&#xeb;" horiz-adv-x="256" 
d="M208 193h-32l-12 -4l-49 -2l-12 -4l-2 -19l-1 -41l12 -63l4 -11l12 -4h64l12 -3v-8l-6 -11h-16l-12 -3l-26 -4l-73 -2l-12 4l-7 16v8l24 7l-1 16l-7 28l-4 71l-2 16l-26 7l-4 21l4 11l20 5v17l-4 22v22l2 32l14 5l12 4h32l12 -4l52 -11l12 -3l4 -12l-4 -11h-8l-40 8
l-12 3h-16l-12 -3l-4 -11v-45l4 -11l12 -3h96l12 -4l4 -11l-4 -11zM146 350l-5 6l-3 9l3 10l8 2h23l9 -2l3 -10l-3 -9l-12 -12l-8 -4l-9 4zM66 348l-5 6l-3 9l3 10l9 2l8 4l6 6h5l12 -12l3 -10l-3 -9l-12 -13l-8 -3l-9 3z" />
    <glyph glyph-name="igrave" unicode="&#xec;" horiz-adv-x="112" 
d="M64 32h-16l-10 11v80l6 57v8l4 36v16v48l-4 12l-8 8v8l16 16h8l16 -16l4 -12v-256l-4 -12zM79 354l-4 -5h-4l-9 9l-4 14l-22 32l-2 7v9l-2 7l-5 5l-2 6l2 7l7 3l6 -3l7 -7l11 -20l17 -28l4 -13l2 4l5 -16l-2 -7z" />
    <glyph glyph-name="iacute" unicode="&#xed;" horiz-adv-x="112" 
d="M64 32h-16l-10 11v80l6 57v8l4 36v16v48l-4 12l-8 8v8l16 16h8l16 -16l4 -12v-256l-4 -12zM82 408l-2 -8l-6 -12l-4 -8l-17 -21l-3 -8l-10 -10h-5l-2 8v19l2 8l8 12l4 7l14 24l4 6l10 10h5l9 -10v-5z" />
    <glyph glyph-name="icircumflex" unicode="&#xee;" horiz-adv-x="112" 
d="M64 32h-16l-10 11v80l6 57v8l4 36v16v48l-4 12l-8 8v8l16 16h8l16 -16l4 -12v-256l-4 -12zM38 348.704l-5.90625 -9.8291h-5.0625l-2.53125 6.31836v8.42578l7.59375 10.5312l5.0625 13.3389h5.0625l2.53125 -7.02051v-8.4248l-2.53125 -6.31934zM95.375 345.193
l-7.59375 2.10645l-5.0625 12.6377l-20.25 17.5518l-15.1875 4.21289l-2.53125 6.31836v8.42578l2.53125 6.31836l7.59375 2.10645l7.59375 -2.10645l5.0625 -12.6377l35.4375 -30.1895l2.53125 -6.31836l-2.53125 -6.31934z" />
    <glyph glyph-name="idieresis" unicode="&#xef;" horiz-adv-x="112" 
d="M64 32h-16l-10 11v80l6 57v8l4 36v16v48l-4 12l-8 8v8l16 16h8l16 -16l4 -12v-256l-4 -12zM69.3896 347.738l-3.61133 5.2334l-2.16602 7.84961l2.16602 8.72266l5.77832 1.74512h16.6113l6.5 -1.74512l2.16602 -8.72266l-2.16602 -7.84961l-8.66699 -10.4678
l-5.77832 -3.48828l-6.5 3.48828zM11.6113 345.993l-3.61133 5.2334l-2.16602 7.85059l2.16602 8.72266l6.5 1.74414l5.77832 3.48926l4.33301 5.2334h3.61133l8.66699 -10.4668l2.16602 -8.72266l-2.16602 -7.85059l-8.66699 -11.3389l-5.77734 -2.61719l-6.50098 2.61719z
" />
    <glyph glyph-name="eth" unicode="&#xf0;" horiz-adv-x="304" 
d="M210 466l-3 -2l-8 -8l-9 -12l-2 -2l-2 -2l-4 -5l-2 -2l-2 -3l-4 -2l-4 -2l-12 10l-6 6l-1 3l1 3l2 2l2 1l11 14l7 10l11 11l1 2l1 1l1 2l6 2l4 -1l7 -4l9 -11v-4zM135 381l-3 -2l-8 -8l-9 -12l-2 -2l-2 -2l-4 -5l-1 -2l-3 -3l-4 -2h-4l-12 8l-6 6l-1 3l1 3l2 2l2 1l11 14
l7 10l11 11l1 2l1 1l1 2l6 2h4l7 -5l10 -9l-1 -6zM195 90l-3 -14l-6 -12l-16 -16l-12 -4l-32 2l-20 10l-21 20l-5 8l-2 15l7 24l16 19l13 7l18 2l17 -1l13 -5l9 -6l11 -13l7 -10l3 -9zM270 193l-3 19l-4 25l-4 20l-4 16l-4 12l-6 18l-4 13l-8 19l-9 18l-10 17l-13 20l-24 29
l-35 29l-26 14l-34 9h-33l-10 -9v-16l6 -4l44 -11l17 -8l35 -28l30 -40l16 -31l9 -20l9 -29l6 -37l5 -68l-2 -14l-13 12l-20 10l-15 5l-44 5l-21 -2l-15 -5l-17 -11l-24 -34l-7 -19v-16l6 -21l14 -21l26 -24l4 -3l27 -14l45 -6l10 1l30 7l27 18l23 29l9 25l7 38l3 18l1 19
v26z" />
    <glyph glyph-name="ntilde" unicode="&#xf1;" horiz-adv-x="336" 
d="M290 57l-10 -5h-8l-8 24l-31 29l-27 15l-32 20l-86 64h-8l-4 -12l1 -79l3 -13l8 -56l-4 -12l-24 1l-8 15v22l-6 38l-2 20l-4 92v24v8l-8 8v8l16 16h8l32 -32l40 -40l48 -32l32 -16l32 -16h8l4 12l-2 13l-5 30l-4 12l-12 48l-4 12l-5 45l4 12h12l12 -16l8 -24l3 -13l9 -23
l4 -12l12 -52l12 -109v-15zM184 330l-15 -15l-8 -2l-7 2l-27 32l-12 17l-21 24l-11 3l-8 -5l-9 -20l-1 -11v-11l-12 2l-2 7v20l2 8l6 11l14 14l10 5l8 1l7 -1l30 -33l11 -17l5 -9l7 -8l10 -1l12 9l2 16l-1 27l-1 10l1 6l6 6h5l3 -7l4 -59l-3 -16z" />
    <glyph glyph-name="ograve" unicode="&#xf2;" horiz-adv-x="281" 
d="M208 202l-1 21l-5 16l-10 15l-11 6h-11l-18 -4l-24 -17l-17 -16l-11 -18l-12 -25l-9 -17l-11 -28l-6 -19l-2 -16l6 -18l20 -21l16 -5h42l17 10l13 15l13 20l8 15l10 26l6 41zM238 128l-5 -16l-5 -14l-15 -25l-26 -33l-9 -8l-10 -5l-57 -4l-14 3l-20 5l-32 21l-13 19
l-4 16l-3 33l8 32l8 19l13 23l68 91l15 7l16 3l18 -4l46 -18l12 -11l10 -23l7 -20v-60l-3 -14zM166 325l-4 -5h-4l-9 9l-4 14l-22 32l-2 7v9l-2 7l-5 5l-2 6l2 7l7 3l6 -3l7 -7l11 -20l17 -28l4 -13l2 4l5 -16l-2 -7z" />
    <glyph glyph-name="oacute" unicode="&#xf3;" horiz-adv-x="281" 
d="M208 202l-1 21l-5 16l-10 15l-11 6h-11l-18 -4l-24 -17l-17 -16l-11 -18l-12 -25l-9 -17l-11 -28l-6 -19l-2 -16l6 -18l20 -21l16 -5h42l17 10l13 15l13 20l8 15l10 26l6 41zM238 128l-5 -16l-5 -14l-15 -25l-26 -33l-9 -8l-10 -5l-57 -4l-14 3l-20 5l-32 21l-13 19
l-4 16l-3 33l8 32l8 19l13 23l68 91l15 7l16 3l18 -4l46 -18l12 -11l10 -23l7 -20v-60l-3 -14zM157 381l-2 -8l-6 -12l-4 -8l-17 -21l-3 -8l-10 -10h-5l-2 8v19l2 8l8 12l4 7l14 24l4 6l10 10h5l9 -10v-5z" />
    <glyph glyph-name="ocircumflex" unicode="&#xf4;" horiz-adv-x="281" 
d="M208 202l-1 21l-5 16l-10 15l-11 6h-11l-18 -4l-24 -17l-17 -16l-11 -18l-12 -25l-9 -17l-11 -28l-6 -19l-2 -16l6 -18l20 -21l16 -5h42l17 10l13 15l13 20l8 15l10 26l6 41zM238 128l-5 -16l-5 -14l-15 -25l-26 -33l-9 -8l-10 -5l-57 -4l-14 3l-20 5l-32 21l-13 19
l-4 16l-3 33l8 32l8 19l13 23l68 91l15 7l16 3l18 -4l46 -18l12 -11l10 -23l7 -20v-60l-3 -14zM119 324l-7 -14h-6l-3 9v12l9 15l6 19h6l3 -10v-12l-3 -9zM187 319l-9 3l-6 18l-24 25l-18 6l-3 9v12l3 9l9 3l9 -3l6 -18l42 -43l3 -9l-3 -9z" />
    <glyph glyph-name="otilde" unicode="&#xf5;" horiz-adv-x="281" 
d="M208 202l-1 21l-5 16l-10 15l-11 6h-11l-18 -4l-24 -17l-17 -16l-11 -18l-12 -25l-9 -17l-11 -28l-6 -19l-2 -16l6 -18l20 -21l16 -5h42l17 10l13 15l13 20l8 15l10 26l6 41zM238 128l-5 -16l-5 -14l-15 -25l-26 -33l-9 -8l-10 -5l-57 -4l-14 3l-20 5l-32 21l-13 19
l-4 16l-3 33l8 32l8 19l13 23l68 91l15 7l16 3l18 -4l46 -18l12 -11l10 -23l7 -20v-60l-3 -14zM213.778 317.578l-12.7656 -11.8262l-6.80762 -1.57715l-5.95703 1.57715l-22.9775 25.2285l-10.2119 13.4023l-17.8711 18.9219l-9.36133 2.36523l-6.80859 -3.94238
l-7.65918 -15.7676l-0.850586 -8.67285v-8.67188l-10.2119 1.57617l-1.70215 5.51953v15.7676l1.70215 6.30664l5.10547 8.67285l11.9141 11.0371l8.51074 3.94238l6.80762 0.788086l5.95703 -0.788086l25.5303 -26.0176l9.36133 -13.4023l4.25586 -7.0957l5.95703 -6.30664
l8.50977 -0.788086l10.2119 7.09473l1.70215 12.6143l-0.850586 21.2871l-0.851562 7.88379l0.851562 4.73047l5.10547 4.73047h4.25488l2.55371 -5.51953l3.40332 -46.5146l-2.55273 -12.6143z" />
    <glyph glyph-name="odieresis" unicode="&#xf6;" horiz-adv-x="281" 
d="M208 202l-1 21l-5 16l-10 15l-11 6h-11l-18 -4l-24 -17l-17 -16l-11 -18l-12 -25l-9 -17l-11 -28l-6 -19l-2 -16l6 -18l20 -21l16 -5h42l17 10l13 15l13 20l8 15l10 26l6 41zM238 128l-5 -16l-5 -14l-15 -25l-26 -33l-9 -8l-10 -5l-57 -4l-14 3l-20 5l-32 21l-13 19
l-4 16l-3 33l8 32l8 19l13 23l68 91l15 7l16 3l18 -4l46 -18l12 -11l10 -23l7 -20v-60l-3 -14zM165 323l-5 6l-3 9l3 10l8 2h23l9 -2l3 -10l-3 -9l-12 -12l-8 -4l-9 4zM85 321l-5 6l-3 9l3 10l9 2l8 4l6 6h5l12 -12l3 -10l-3 -9l-12 -13l-8 -3l-9 3z" />
    <glyph glyph-name="divide" unicode="&#xf7;" horiz-adv-x="320" 
d="M284 199l-11 -6l-17 -4l-68 -2l-16 -1l-73 -9l-14 -5l-14 -5l-17 -3h-23l-16 3l-6 10l6 9l16 3l20 3l17 3l14 4l17 3l73 10l16 1l90 2l17 -3v-7zM153 246l-6 -7l-10 -3l-10 3l-13 14l-4 10l4 10l6 6l7 20l13 14h7l13 -14l3 -10v-26l-3 -10zM163 64h-26l-10 3l-13 13
l-4 10l4 10l10 3h26l10 -3l13 -13l3 -10l-3 -10z" />
    <glyph glyph-name="oslash" unicode="&#xf8;" horiz-adv-x="281" 
d="M208 202l-1 21l-5 16l-10 15l-11 6h-11l-18 -4l-24 -17l-17 -16l-11 -18l-12 -25l-9 -17l-11 -28l-6 -19l-2 -16l6 -18l20 -21l16 -5h42l17 10l13 15l13 20l8 15l10 26l6 41zM238 128l-5 -16l-5 -14l-15 -25l-26 -33l-9 -8l-10 -5l-57 -4l-14 3l-20 5l-32 21l-13 19
l-4 16l-3 33l8 32l8 19l13 23l68 91l15 7l16 3l18 -4l46 -18l12 -11l10 -23l7 -20v-60l-3 -14zM206 265l-8 -19l-27 -56l-30 -71l-5 -14l-4 -5l-5 -14l-4 -5l-17 -38l-5 -14l-9 -19l-17 -19l-7 -2l-6 2l-2 7v10l2 7l4 5l4 14l5 5l39 99l31 70l35 85l4 14l5 5l4 14l18 19l6 3
l7 -3l2 -7v-19l-2 -7z" />
    <glyph glyph-name="ugrave" unicode="&#xf9;" horiz-adv-x="220" 
d="M171 75l-5 -14l-8 -22l-17 -18l-14 -5h-19l-14 5l-39 41l-4 14l-18 107l-1 15v81l5 15l17 2l11 -2l5 -15v-40l1 -15l2 -56l2 -19l14 -73l6 -12l8 -2l28 9l4 16l9 60v14l2 98l5 15l14 5l14 -5l5 -15l-3 -120l-2 -17zM108 318l-4 -5h-4l-9 9l-4 14l-22 32l-2 7v9l-2 7l-5 5
l-2 6l2 7l7 3l6 -3l7 -7l11 -20l17 -28l4 -13l2 4l5 -16l-2 -7z" />
    <glyph glyph-name="uacute" unicode="&#xfa;" horiz-adv-x="220" 
d="M171 75l-5 -14l-8 -22l-17 -18l-14 -5h-19l-14 5l-39 41l-4 14l-18 107l-1 15v81l5 15l17 2l11 -2l5 -15v-40l1 -15l2 -56l2 -19l14 -73l6 -12l8 -2l28 9l4 16l9 60v14l2 98l5 15l14 5l14 -5l5 -15l-3 -120l-2 -17zM160 372l-2 -8l-6 -12l-4 -8l-17 -21l-3 -8l-10 -10h-5
l-2 8v19l2 8l8 12l4 7l14 24l4 6l10 10h5l9 -10v-5z" />
    <glyph glyph-name="ucircumflex" unicode="&#xfb;" horiz-adv-x="220" 
d="M171 75l-5 -14l-8 -22l-17 -18l-14 -5h-19l-14 5l-39 41l-4 14l-18 107l-1 15v81l5 15l17 2l11 -2l5 -15v-40l1 -15l2 -56l2 -19l14 -73l6 -12l8 -2l28 9l4 16l9 60v14l2 98l5 15l14 5l14 -5l5 -15l-3 -120l-2 -17zM85 328l-7 -14h-6l-3 9v12l9 15l6 19h6l3 -10v-12
l-3 -9zM153 323l-9 3l-6 18l-24 25l-18 6l-3 9v12l3 9l9 3l9 -3l6 -18l42 -43l3 -9l-3 -9z" />
    <glyph glyph-name="udieresis" unicode="&#xfc;" horiz-adv-x="220" 
d="M171 75l-5 -14l-8 -22l-17 -18l-14 -5h-19l-14 5l-39 41l-4 14l-18 107l-1 15v81l5 15l17 2l11 -2l5 -15v-40l1 -15l2 -56l2 -19l14 -73l6 -12l8 -2l28 9l4 16l9 60v14l2 98l5 15l14 5l14 -5l5 -15l-3 -120l-2 -17zM135 323l-5 6l-3 9l3 10l8 2h23l9 -2l3 -10l-3 -9
l-12 -12l-8 -4l-9 4zM55 321l-5 6l-3 9l3 10l9 2l8 4l6 6h5l12 -12l3 -10l-3 -9l-12 -13l-8 -3l-9 3z" />
    <glyph glyph-name="yacute" unicode="&#xfd;" horiz-adv-x="305" 
d="M269 308l-88 -88l-6 -33v-8l4 -33l3 -23l5 -14l3 -12l3 -81l-4 -12h-8l-12 3l-3 15l-1 13l-3 18l-1 11l-7 45l-3 13l-2 10l-4 12l-4 28l-32 32l-44 26l-32 16l-28 30v8l12 4l12 -4l20 -12l15 -7l37 -21l32 -16h8l64 64l32 32l16 27l11 11l5 2l7 -5l9 -19zM191 420l-2 -8
l-6 -12l-4 -8l-17 -21l-3 -8l-10 -10h-5l-2 8v19l2 8l8 12l4 7l14 24l4 6l10 10h5l9 -10v-5z" />
    <glyph glyph-name="ydieresis" unicode="&#xff;" horiz-adv-x="305" 
d="M269 308l-88 -88l-6 -33v-8l4 -33l3 -23l5 -14l3 -12l3 -81l-4 -12h-8l-12 3l-3 15l-1 13l-3 18l-1 11l-7 45l-3 13l-2 10l-4 12l-4 28l-32 32l-44 26l-32 16l-28 30v8l12 4l12 -4l20 -12l15 -7l37 -21l32 -16h8l64 64l32 32l16 27l11 11l5 2l7 -5l9 -19zM179 365l-5 6
l-3 9l3 10l8 2h23l9 -2l3 -10l-3 -9l-12 -12l-8 -4l-9 4zM99 363l-5 6l-3 9l3 10l9 2l8 4l6 6h5l12 -12l3 -10l-3 -9l-12 -13l-8 -3l-9 3z" />
    <glyph glyph-name="Aogonek" unicode="&#x104;" horiz-adv-x="343" 
d="M296 26q-39 -44 16 -95q4 -4 -7 -10l-4 1q-36 13 -43 47q-4 19 0 35q5 29 15 34q16 10 23 -12zM276 35zM304 53zM241 207l-2 5l-5 25l-30 195l-4 12l-12 4l-12 -4l-4 -12l-34 -132l-13 -66l-3 -24l2 -9l101 -10l12 4zM304 36l-8 -8h-8l-16 7l-4 21v16l-4 12l-16 74l-12 4
h-80l-40 3l-24 -109l-4 -12l-16 -16l-15 4l-4 12l18 109l-4 12l-35 7l2 30l12 4h16l12 4l9 11l11 39l14 64l4 12l44 160l3 13l10 25l4 12l16 16h8l10 -11l6 -21l4 -12l15 -58l4 -12l32 -136l10 -44l13 -69l21 -9l4 -12l-4 -12l-13 -6v-8l12 -85v-16l1 -7z" />
    <glyph glyph-name="aogonek" unicode="&#x105;" horiz-adv-x="277" 
d="M252 37q-39 -45 16 -95q4 -5 -7 -10l-4 1q-37 12 -43 47q-4 18 0 35q5 29 14 33q16 10 24 -11zM170 170l-14 23l-16 15h-8l-20 -41l4 -12l12 -3h16l23 2zM244 42l-8 -8h-8l-4 12l-7 28l-4 11l-9 17l-10 16l-41 2l-25 1l-12 -3l-16 -16l-8 -22l-12 -34l-4 -12l-8 -29
l-16 -1l-17 8l-3 18l4 12l8 7l4 12l28 94l4 12l32 106v15l-4 11l-8 8l-4 11l4 11l24 8l20 -19l4 -11l8 -8l4 -11l28 -80l10 -19l25 -48l8 -7l4 -12l18 -53l-1 -20z" />
    <glyph glyph-name="Cacute" unicode="&#x106;" horiz-adv-x="320" 
d="M276 28l-8 -8l-12 -4l-47 1l-13 3l-20 6l-21 8l-26 9l-46 35l-27 35l-12 34l-6 26l-3 23l-2 15l-7 52l4 58l1 16l9 38l13 36l17 29l45 51l29 23l19 9l25 6l16 1l20 -2l12 -4v-8l-16 -16l-12 -4l-12 -3l-12 -4l-12 -5l-44 -44l-21 -30l-14 -33l-4 -12l-10 -53l2 -20
l13 -127l17 -37l11 -15l24 -16l26 -12l15 -4l28 -6l24 -3l17 -8l12 -4l16 -16v-8zM145 622l-4 5h-4l-9 -9l-4 -14l-22 -32l-2 -7v-9l-2 -7l-5 -5l-2 -6l2 -7l7 -3l6 3l7 7l11 20l17 28l4 13l2 -4l5 16l-2 7z" />
    <glyph glyph-name="cacute" unicode="&#x107;" horiz-adv-x="208" 
d="M162 19l-25 -3l-18 5l-16 8l-20 11l-27 36l-35 80l-4 14l6 54l5 17l15 33l31 27l29 17l12 5l27 4l12 -4l4 -10l-4 -11l-12 -4l-22 -6l-12 -4l-21 -13l-13 -20l-11 -31l-4 -18l-3 -60l5 -19l22 -43l32 -29l14 -6h29l13 -5l3 -7l-4 -11zM103 392l-3 4h-3l-8 -6l-3 -9
l-18 -20l-1 -5v-5l-2 -5l-4 -3l-2 -4l2 -4l6 -2l5 2l5 4l9 13l14 18l3 8l2 -3l4 10l-2 5z" />
    <glyph glyph-name="Eogonek" unicode="&#x118;" horiz-adv-x="337" 
d="M268 50q-39 -45 16 -95q4 -5 -7 -10l-4 1q-37 12 -43 47q-4 18 0 35q5 29 14 34q16 9 24 -12zM295 67l-27 -17h-24h-24h-24l-37 -3l-15 -1l-32 1l-33 -1l-12 9v8v20l4 12v178l-4 12l-8 14l-12 4h-16l-12 4l-4 12l4 12l12 4l20 -1l12 4l4 12v150l-4 12l-8 8l-4 18l4 12
l8 8l53 -4l32 8l12 4h64l12 -4l4 -12l-4 -12l-12 -4h-16l-12 -4l-42 -8l-23 -3l-12 -4l-5 -9l-4 -12l2 -126l4 -12l16 -16h8h24l50 -2l22 2l32 -8l4 -12l-4 -12l-12 -4l-28 -4h-16l-51 1l-23 -1l-12 -4l-5 -9l2 -67l5 -28v-82l4 -12l13 -12l108 6l19 1l20 13h8l4 -12l-4 -12
z" />
    <glyph glyph-name="eogonek" unicode="&#x119;" horiz-adv-x="256" 
d="M198 22q-37 -39 15 -82q3 -4 -7 -9l-4 1q-33 10 -40 41q-3 16 1 30q4 25 13 29q15 9 22 -10zM208 193h-32l-12 -4l-49 -2l-12 -4l-2 -19l-1 -41l12 -63l4 -11l12 -4h64l12 -3v-8l-6 -11h-16l-12 -3l-26 -4l-73 -2l-12 4l-7 16v8l24 7l-1 16l-7 28l-4 71l-2 16l-26 7
l-4 21l4 11l20 5v17l-4 22v22l2 32l14 5l12 4h32l12 -4l52 -11l12 -3l4 -12l-4 -11h-8l-40 8l-12 3h-16l-12 -3l-4 -11v-45l4 -11l12 -3h96l12 -4l4 -11l-4 -11z" />
    <glyph glyph-name="Lslash" unicode="&#x141;" horiz-adv-x="352" 
d="M146 383l-13 -12l-41 -34l-50 -45l-8 -9l-5 -2l-9 -9l-5 -3l-27 -23l-9 -10l-14 -11l-20 -9l-6 2l-4 4l2 6l3 8l4 5l5 2l9 10l5 2l66 63l50 44l58 54l8 9l6 2l8 10l21 8h5l4 -5l-1 -7l-7 -15l-4 -5zM304 56l-171 -8h-15l-42 -4h-8l-26 4l-6 12v8l6 13l1 20l-4 150v15
l-1 49l-9 100l-1 22v33l-1 16l-2 65l4 12l12 4l29 -3l9 -11v-8l-1 -13l-4 -12l3 -95l4 -12l5 -25l2 -18l2 -26v-48l5 -200l4 -12l12 -4l27 2l26 2l12 4h18h24h22h64l12 -4l4 -12l-4 -12z" />
    <glyph glyph-name="lslash" unicode="&#x142;" 
d="M122 231l-9 -8l-28 -21l-33 -28l-7 -6l-3 -1l-6 -6l-3 -1l-19 -15l-6 -6l-9 -7l-14 -5h-4l-3 3l1 4l3 5l3 3l3 1l6 6l3 2l46 39l33 27l40 34l6 6l3 1l6 6l14 5h4l3 -3l-1 -4l-5 -9l-3 -3zM220 69h-8v-8h8v8zM226 46l-52 -2l-8 -2h-56h-8h-24l-24 8l-4 12l-5 186l-1 13v40
l8 24l12 4l12 -4l4 -12l6 -216l4 -12l12 -4l122 8l12 -4l4 -12l2 -11l-4 -12z" />
    <glyph glyph-name="Nacute" unicode="&#x143;" horiz-adv-x="385" 
d="M337 96l-15 3l-19 24l-14 21l-14 28l-43 62l-32 48l-48 64l-41 59l-16 16l-12 -6l-4 -12l6 -110l1 -32l6 -25v-8l2 -20l2 -16v-112l-4 -12l-12 -4l-12 4l-4 12l-6 40l-4 12l-2 32l-4 12l-11 188l-2 17l-3 33v18l1 97l8 2h8l12 -6l7 -9l24 -24l48 -64l48 -64l32 -48
l32 -48l12 -20l28 -36h8l-1 12l-4 12l-3 8l-3 15l-1 29l-2 147l-4 12l-6 21l-4 12v16l4 12l12 4l20 -2l15 -13l4 -12l1 -122l2 -27l4 -31l2 -21l12 -144l4 -12v-16l-4 -12zM217 602l-4 5h-4l-9 -9l-4 -14l-22 -32l-2 -7v-9l-2 -7l-5 -5l-2 -6l2 -7l7 -3l6 3l7 7l11 20l17 28
l4 13l2 -4l5 16l-2 7z" />
    <glyph glyph-name="nacute" unicode="&#x144;" horiz-adv-x="320" 
d="M290 57l-10 -5h-8l-8 24l-31 29l-27 15l-32 20l-86 64h-8l-4 -12l1 -79l3 -13l8 -56l-4 -12l-24 1l-8 15v22l-6 38l-2 20l-4 92v24v8l-8 8v8l16 16h8l32 -32l40 -40l48 -32l32 -16l32 -16h8l4 12l-2 13l-5 30l-4 12l-12 48l-4 12l-5 45l4 12h12l12 -16l8 -24l3 -13l9 -23
l4 -12l12 -52l12 -109v-15zM169 370l-4 5h-4l-9 -9l-4 -14l-22 -32l-2 -7v-9l-2 -7l-5 -5l-2 -6l2 -7l7 -3l6 3l7 7l11 20l17 28l4 13l2 -4l5 16l-2 7z" />
    <glyph glyph-name="OE" unicode="&#x152;" horiz-adv-x="548" 
d="M262 143l-6 34l-2 33l-2 201l-5 47l-24 10l-18 5l-26 -5l-18 -7l-25 -28l-23 -56l-25 -57l-5 -30l-3 -112l8 -41l18 -31l30 -26l18 -6h49l26 12l33 44v13zM494 45h-194l-18 7l-12 14h-13l-12 -14l-30 -21l-18 -6l-18 -8h-25l-18 8l-26 11l-22 16l-27 20l-21 37l-7 21
l-9 80v43l2 32l7 42l7 21l9 25l14 32l25 49l26 31l29 23l18 10l20 4l46 3l18 7l12 13l19 8l18 -8l13 -13l18 -7h169l18 -7v-14l-24 -28l-18 -8h-145l-18 -7l-7 -21v-84l7 -22l18 -7h96l19 -7l6 -21l-6 -22l-19 -6h-96l-18 -7l-7 -21l10 -79l9 -34l11 -21l18 -7h98l18 -8
l18 -2l19 -21v-14z" />
    <glyph glyph-name="oe" unicode="&#x153;" horiz-adv-x="431" 
d="M220 69l-4 20l-2 21l-1 126l-4 28l-19 8l-13 1l-20 -1l-14 -5l-18 -17l-19 -36l-18 -35l-4 -18l-2 -71l6 -26l14 -19l23 -16l14 -4h37l20 8l24 28v8zM397 7h-148l-13 5l-10 9h-9l-9 -9l-23 -13l-14 -4l-14 -5h-18l-14 5l-20 7l-17 10l-20 12l-17 23l-5 14l-7 49v27l2 20
l5 27l5 12l7 15l11 20l19 32l19 19l22 14l14 6l16 3l35 2l14 4l9 8l14 5l14 -5l9 -8l14 -4h129l14 -5v-9l-18 -18l-14 -3h-111l-14 -5l-5 -14v-52l5 -13l14 -4h74l14 -5l4 -13l-4 -14l-14 -4h-74l-14 -4l-5 -14l8 -48l7 -21l9 -14l13 -5h74l14 -3l14 -2l14 -14v-8z" />
    <glyph glyph-name="Sacute" unicode="&#x15a;" 
d="M231 102l-11 -18l-16 -16l-18 -12l-14 -4h-8h-20l-12 4l-20 8l-12 4l-32 32l-11 19l-5 13l-4 12l4 12l16 16h8l16 -16l4 -12l4 -11l9 -16l27 -28l12 -4h16l12 4l14 19l4 12l2 20v24l-4 28l-4 12l-11 16l-12 18l-33 45l-48 57l-15 17l-9 13l-11 20l-13 30l-4 12v16l2 21
l5 12l11 15l34 28l17 10l15 6l12 4h48l12 -4l16 -16v-8l-15 -13l-12 4l-29 2l-19 -4l-24 -7l-19 -21l-10 -15l-3 -23l4 -12l7 -23l10 -19l30 -37l80 -96l11 -18l10 -15l4 -12l6 -16l4 -12l3 -14l3 -15l-5 -22l-4 -12zM137 662l-4 5h-4l-9 -9l-4 -14l-22 -32l-2 -7v-9l-2 -7
l-5 -5l-2 -6l2 -7l7 -3l6 3l7 7l11 20l17 28l4 13l2 -4l5 16l-2 7z" />
    <glyph glyph-name="sacute" unicode="&#x15b;" horiz-adv-x="192" 
d="M148 32l-7 -7l-9 -3l-24 -1l-16 3l-14 6l-12 5l-30 21l-4 12v16l6 5l5 1l36 -33l28 -6l17 2l5 4l5 20l-4 21l-6 14l-18 32l-76 108l-3 9l1 9l13 25l16 15l10 2h5l9 -2l11 -6l29 -30l-5 -10h-7l-8 8l-13 13l-16 5l-10 -4l-6 -8l-2 -14l2 -8l68 -80l16 -23l4 -9l10 -30
l6 -30v-32l-4 -12zM81 386l-3 3h-4l-7 -6l-3 -9l-18 -21l-2 -5v-6l-1 -4l-4 -4l-2 -4l2 -4l5 -2l5 2l6 4l9 13l14 19l3 9l1 -3l5 11l-2 4z" />
    <glyph glyph-name="Scaron" unicode="&#x160;" 
d="M152 617l10 10l6 -2l-1 -8l-3 -10l-13 -12l-11 -14l-5 2l-1 9l5 11l5 7zM93 643l8 -6l-1 -18l14 -28l14 -11l-1 -10l-2 -10l-8 -7h-7l-8 6l1 17l-24 51l-1 9l6 6zM231 102l-11 -18l-16 -16l-18 -12l-14 -4h-8h-20l-12 4l-20 8l-12 4l-32 32l-11 19l-5 13l-4 12l4 12
l16 16h8l16 -16l4 -12l4 -11l9 -16l27 -28l12 -4h16l12 4l14 19l4 12l2 20v24l-4 28l-4 12l-11 16l-12 18l-33 45l-48 57l-15 17l-9 13l-11 20l-13 30l-4 12v16l2 21l5 12l11 15l34 28l17 10l15 6l12 4h48l12 -4l16 -16v-8l-15 -13l-12 4l-29 2l-19 -4l-24 -7l-19 -21
l-10 -15l-3 -23l4 -12l7 -23l10 -19l30 -37l80 -96l11 -18l10 -15l4 -12l6 -16l4 -12l3 -14l3 -15l-5 -22l-4 -12z" />
    <glyph glyph-name="scaron" unicode="&#x161;" horiz-adv-x="192" 
d="M113 367l7 7l4 -1l-1 -6l-2 -6l-9 -9l-7 -9l-4 1v6l3 8l3 5zM72 385l6 -4l-1 -12l10 -19l9 -8v-6l-2 -7l-5 -5h-5l-5 4v12l-16 34l-1 6l4 4zM148 32l-7 -7l-9 -3l-24 -1l-16 3l-14 6l-12 5l-30 21l-4 12v16l6 5l5 1l36 -33l28 -6l17 2l5 4l5 20l-4 21l-6 14l-18 32
l-76 108l-3 9l1 9l13 25l16 15l10 2h5l9 -2l11 -6l29 -30l-5 -10h-7l-8 8l-13 13l-16 5l-10 -4l-6 -8l-2 -14l2 -8l68 -80l16 -23l4 -9l10 -30l6 -30v-32l-4 -12z" />
    <glyph glyph-name="Ydieresis" unicode="&#x178;" horiz-adv-x="368" 
d="M324 572l-24 -40l-32 -48l-32 -48l-16 -32l-4 -17l-1 -15v-28l1 -16l4 -52v-24l2 -39l2 -149l-4 -12h-8l-28 4l-4 12l-3 34l-4 56l3 33v33l-6 128l-4 12l-17 42l-17 16l-64 78l-32 48l-4 12l4 12l12 4l12 -4l27 -31l21 -33l56 -72l12 -4l12 4l16 16l29 50l40 68l9 19
l16 16l22 3l12 -4l4 -12l-4 -12zM216 620l-5 6l-3 9l3 10l8 2h23l9 -2l3 -10l-3 -9l-12 -12l-8 -4l-9 4zM136 618l-5 6l-3 9l3 10l9 2l8 4l6 6h5l12 -12l3 -10l-3 -9l-12 -13l-8 -3l-9 3z" />
    <glyph glyph-name="Zacute" unicode="&#x179;" horiz-adv-x="416" 
d="M368 48h-96l-52 4l-12 -4h-64h-48h-32l-12 4l-12 7l-8 8l-4 12l5 23l12 4l13 5l12 4l22 42l7 19l18 41l20 41l4 12l16 32l18 36l16 32l26 49l4 12l16 32l19 38l12 20v8l-12 4h-165l-12 4l3 32l12 4l28 4l22 -1l145 -1l12 4l18 10h27l2 -12l-21 -44l-27 -49l-16 -32
l-16 -32l-76 -164l-4 -12l-8 -15l-24 -49l-16 -32l-13 -27v-8l5 -13l12 -4h64h48h96l12 -4l16 -16l4 -12l-4 -12zM239 702l-4 5h-4l-9 -9l-4 -14l-22 -32l-2 -7v-9l-2 -7l-5 -5l-2 -6l2 -7l7 -3l6 3l7 7l11 20l17 28l4 13l2 -4l5 16l-2 7z" />
    <glyph glyph-name="zacute" unicode="&#x17a;" horiz-adv-x="254" 
d="M226 44l-7 -3l-12 -2h-16l-12 2l-25 -5l-44 -4l-12 -4l-36 -12l-12 4l-16 16v8l16 16l19 8l4 12l5 32l4 12l16 32l7 9l49 95l4 12l-3 15l-12 4h-32l-12 -4l-12 -5l-20 -3h-24h-8l-11 11v8l6 6l14 5l11 2h9l12 4l82 5l12 4l8 8l12 4l12 -4l4 -12l-4 -12l-8 -8l-4 -12v-16
l-4 -12l-12 -36l-12 -20l-16 -32l-16 -32l-16 -32l-4 -12v-16l4 -12l13 -2l11 2l9 4l12 4l63 4l12 -4l4 -12l-4 -12zM146 415l-3 3h-3l-8 -6l-4 -10l-19 -22l-1 -5v-6l-2 -5l-4 -3l-2 -5l2 -5l6 -2l5 2l6 5l9 14l15 20l3 9l2 -3l4 11l-1 5z" />
    <glyph glyph-name="Zdotaccent" unicode="&#x17b;" horiz-adv-x="416" 
d="M250 644l-8 -8l-12 -4h-32l-12 4l-4 12v16l4 12l16 16l12 4h16l12 -4l16 -16l4 -12l-4 -12zM368 48h-96l-52 4l-12 -4h-64h-48h-32l-12 4l-12 7l-8 8l-4 12l5 23l12 4l13 5l12 4l22 42l7 19l18 41l20 41l4 12l16 32l18 36l16 32l26 49l4 12l16 32l19 38l12 20v8l-12 4
h-165l-12 4l3 32l12 4l28 4l22 -1l145 -1l12 4l18 10h27l2 -12l-21 -44l-27 -49l-16 -32l-16 -32l-76 -164l-4 -12l-8 -15l-24 -49l-16 -32l-13 -27v-8l5 -13l12 -4h64h48h96l12 -4l16 -16l4 -12l-4 -12z" />
    <glyph glyph-name="zdotaccent" unicode="&#x17c;" horiz-adv-x="254" 
d="M130 360l-5 -5l-9 -3h-23l-9 3l-2 8v11l2 8l12 11l8 3h12l9 -3l11 -11l3 -8l-3 -8zM226 44l-7 -3l-12 -2h-16l-12 2l-25 -5l-44 -4l-12 -4l-36 -12l-12 4l-16 16v8l16 16l19 8l4 12l5 32l4 12l16 32l7 9l49 95l4 12l-3 15l-12 4h-32l-12 -4l-12 -5l-20 -3h-24h-8l-11 11
v8l6 6l14 5l11 2h9l12 4l82 5l12 4l8 8l12 4l12 -4l4 -12l-4 -12l-8 -8l-4 -12v-16l-4 -12l-12 -36l-12 -20l-16 -32l-16 -32l-16 -32l-4 -12v-16l4 -12l13 -2l11 2l9 4l12 4l63 4l12 -4l4 -12l-4 -12z" />
    <glyph glyph-name="Zcaron" unicode="&#x17d;" horiz-adv-x="416" 
d="M234 660l10 10l6 -2l-1 -8l-3 -10l-13 -12l-11 -14l-5 2l-1 9l5 11l5 7zM175 686l8 -6l-1 -18l14 -28l14 -11l-1 -10l-2 -10l-8 -7h-7l-8 6l1 17l-24 51l-1 9l6 6zM368 48h-96l-52 4l-12 -4h-64h-48h-32l-12 4l-12 7l-8 8l-4 12l5 23l12 4l13 5l12 4l22 42l7 19l18 41
l20 41l4 12l16 32l18 36l16 32l26 49l4 12l16 32l19 38l12 20v8l-12 4h-165l-12 4l3 32l12 4l28 4l22 -1l145 -1l12 4l18 10h27l2 -12l-21 -44l-27 -49l-16 -32l-16 -32l-76 -164l-4 -12l-8 -15l-24 -49l-16 -32l-13 -27v-8l5 -13l12 -4h64h48h96l12 -4l16 -16l4 -12l-4 -12
z" />
    <glyph glyph-name="zcaron" unicode="&#x17e;" horiz-adv-x="264" 
d="M226 44l-7 -3l-12 -2h-16l-12 2l-25 -5l-44 -4l-12 -4l-36 -12l-12 4l-16 16v8l16 16l19 8l4 12l5 32l4 12l16 32l7 9l49 95l4 12l-3 15l-12 4h-32l-12 -4l-12 -5l-20 -3h-24h-8l-11 11v8l6 6l14 5l11 2h9l12 4l82 5l12 4l8 8l12 4l12 -4l4 -12l-4 -12l-8 -8l-4 -12v-16
l-4 -12l-12 -36l-12 -20l-16 -32l-16 -32l-16 -32l-4 -12v-16l4 -12l13 -2l11 2l9 4l12 4l63 4l12 -4l4 -12l-4 -12z" />
    <glyph glyph-name="circumflex" unicode="&#x2c6;" horiz-adv-x="160" 
d="M64 481l-7 -14h-6l-3 9v12l9 15l6 19h6l3 -10v-12l-3 -9zM132 476l-9 3l-6 18l-24 25l-18 6l-3 9v12l3 9l9 3l9 -3l6 -18l42 -43l3 -9l-3 -9z" />
    <glyph glyph-name="tilde" unicode="&#x2dc;" horiz-adv-x="242" 
d="M176 536l-15 -15l-8 -2l-7 2l-27 32l-12 17l-21 24l-11 3l-8 -5l-9 -20l-1 -11v-11l-12 2l-2 7v20l2 8l6 11l14 14l10 5l8 1l7 -1l30 -33l11 -17l5 -9l7 -8l10 -1l12 9l2 16l-1 27l-1 10l1 6l6 6h5l3 -7l4 -59l-3 -16z" />
    <glyph glyph-name="endash" unicode="&#x2013;" 
d="M228 284l-8 -8l-12 -4l-48 -3l-12 -1l-52 -12l-10 -6l-10 -6l-12 -4h-16l-12 4l-4 12l4 12l12 4l14 3l12 4l10 5l12 4l52 12l12 2l64 2l12 -4v-8z" />
    <glyph glyph-name="quoteleft" unicode="&#x2018;" horiz-adv-x="160" 
d="M84 548l-2 -7l-2 -8l-3 -6l-16 -29l-3 -7l-9 -9l-7 -2l-8 2l-2 7v7l2 7l5 6l19 27l6 12l9 10l7 2l7 -2v-5z" />
    <glyph glyph-name="quoteright" unicode="&#x2019;" horiz-adv-x="160" 
d="M80 548l-3 -7l-1 -8l-3 -7l-17 -27l-1 -6l-8 -10l-6 -3l-7 3l-2 6v9l2 6l4 6l5 12l17 27l9 8l7 3l6 -3v-4z" />
    <glyph glyph-name="quotesinglbase" unicode="&#x201a;" horiz-adv-x="853" 
 />
    <glyph glyph-name="quotedblleft" unicode="&#x201c;" horiz-adv-x="192" 
d="M68 524l-8 -8h-8l-16 16l-4 12v112l4 12l12 4l12 -4l4 -12v-16l4 -12l8 -8l4 -12v-64l-4 -12zM148 588l-2 -14l-2 -14l-4 -12l-16 -16h-8l-4 12v96l4 12l12 4l12 -4l4 -12l3 -15l1 -13v-24z" />
    <glyph glyph-name="quotedblright" unicode="&#x201d;" horiz-adv-x="192" 
d="M68 524l-8 -8h-8l-16 16l-4 12v112l4 12l12 4l12 -4l4 -12v-16l4 -12l8 -8l4 -12v-64l-4 -12zM147 588l-1 -13l-2 -15l-4 -12l-16 -16h-8l-4 12v96l4 12l12 4l12 -4l4 -12l2 -15l2 -13z" />
    <glyph glyph-name="bullet" unicode="&#x2022;" horiz-adv-x="853" 
 />
    <glyph glyph-name="currency" unicode="&#x20ac;" horiz-adv-x="368" 
d="M322 202l-13 -20l-14 -16l-31 -18l-12 -4l-30 1l-14 3l-8 5l-17 15l-23 28l-10 19l-6 13l-4 12l-13 66l-3 20v10l-4 16h-12h-16l-12 4l-4 12l4 12l17 3l11 1l12 4v24l-12 4h-64l-12 4v15l12 4l32 1l12 3l32 5l3 5l1 27l3 15l17 47l7 9l25 21l19 11l13 5l5 1h54l12 -4
l9 -5l20 -10l8 -10v-16l-4 -7h-8l-34 18l-10 1l-35 -3l-27 -9l-9 -6l-13 -15l-9 -18l-4 -9l-4 -33l1 -11l12 -4h80l12 -4l4 -12l-4 -12l-12 -4h-80l-12 -4v-24l12 -4h64l12 -4l4 -12l-4 -12l-12 -4h-64l-12 -4l-3 -5l3 -19l12 -68l4 -12l11 -23l7 -11l17 -21l9 -5l29 -5
l19 5l26 31l4 12l2 13l4 12h8h7l9 -32v-8z" />
    <glyph glyph-name="trademark" unicode="&#x2122;" horiz-adv-x="236" 
d="M109 579h-32l-3 -1v-3l-1 -12v-17l2 -50l1 -13l1 -4v-7l-1 -2l-4 -4h-1l-5 4l-1 9v4l-2 41v3v9l-1 4l-1 10v7l-1 17v3h-3h-24l-2 -1l-4 -1l-3 -1l-2 1l-4 3l-1 3l1 3h3h35l2 1l2 2l3 1h3l3 -1h2h2h1l3 1h31l3 -1l1 -3l-1 -4zM206 485l-2 -1h-1l-4 3l-1 3v56l-1 2h-1
l-18 -21l-7 -9l-5 -3h-2l-3 4l-4 4l-7 10l-10 14l-9 12h-2v-2l2 -2l1 -2l2 -54l1 -3v-27l-1 -3h-1l-5 1l-2 4v5l-3 25v4l-2 45v8v3l-1 4l2 3l3 2h2l4 -1l3 -3l4 -3l7 -11l10 -14l9 -11h2l10 11l17 19l1 2l1 3l1 3l3 5h2l3 -4l1 -3l1 -56l1 -3l1 -5l1 -2v-7l-1 -3z" />
    <glyph glyph-name="NULL" horiz-adv-x="0" 
 />
    </font>
</defs>
</svg>
